<?xml version="1.0" encoding="utf-8"?>
<!-- Generator: Adobe Illustrator 22.0.1, SVG Export Plug-In . SVG Version: 6.00 Build 0)  -->
<svg version="1.1" id="Capa_1" xmlns="http://www.w3.org/2000/svg" xmlns:xlink="http://www.w3.org/1999/xlink" x="0px" y="0px"
	 viewBox="0 0 216.1 206.4" style="enable-background:new 0 0 216.1 206.4;" xml:space="preserve">
<style type="text/css">
	.st0{fill:#FFFFFF;}
</style>
<g>
	<path class="st0" d="M23.6,41.2c27.7-9.9,55-19.8,82.4-29.5c1.2-0.4,2.8-0.6,4-0.2c27.6,9.8,55.2,19.7,83.1,29.7
		c-1.1,10-2.1,19.8-3.2,29.7c-2.7,24.3-5.4,48.6-8.1,72.9c-0.3,2.8-0.4,5.6-1,8.3c-0.4,1.5-1.4,3.5-2.7,4.2
		c-22.4,12.8-44.9,25.6-67.5,38.1c-1.2,0.7-3.6,0.6-4.8-0.1c-22.4-12.5-44.8-25.2-67.1-38c-1.4-0.8-2.7-2.9-2.9-4.5
		c-4-35-7.9-70-11.8-105C23.8,45.1,23.8,43.3,23.6,41.2z M108.3,26.9c-18.2,40-36.1,79.3-54.3,119.2c6.2,0,11.6-0.1,17.1,0.1
		c2.5,0.1,3.7-0.8,4.6-3.1c2.5-7.1,5.3-14.1,7.9-21.2c0.8-2.3,1.9-3.3,4.5-3.2c13.6,0.1,27.1,0.1,40.7,0c2.4,0,3.4,0.9,4.2,3
		c2.6,7.2,5.3,14.4,8.2,21.5c0.4,1.1,1.6,2.8,2.5,2.8c6.1,0.2,12.2,0.1,18.9,0.1C144.4,106.2,126.6,67,108.3,26.9z"/>
	<path class="st0" d="M124.3,102.3c-11,0-21.1,0-32,0c5.4-12.6,10.6-24.8,16-37.5C113.7,77.5,118.9,89.6,124.3,102.3z"/>
</g>
</svg>
