<?xml version="1.0" encoding="utf-8"?>
<!-- Generator: Adobe Illustrator 22.0.1, SVG Export Plug-In . SVG Version: 6.00 Build 0)  -->
<svg version="1.1" id="Capa_1" xmlns="http://www.w3.org/2000/svg" xmlns:xlink="http://www.w3.org/1999/xlink" x="0px" y="0px"
	 viewBox="0 0 533.2 451.1" style="enable-background:new 0 0 533.2 451.1;" xml:space="preserve">
<style type="text/css">
	.st0{opacity:0.2;fill:#23BDF0;}
	.st1{opacity:0.2;fill:#23BDF0;enable-background:new    ;}
	.st2{fill:#40BDFF;}
</style>
<path class="st0" d="M247.7,2808.3c11.5-22.7,14.8-49.6,7.4-76c-6.8-24.1-101.6-141.8-173.4-180c-36.4-19.4-170.6-69.5-249.8-22.3
	c-93.2,55.5-206.1,295-195.8,331.1c8.1,28.7,29.8,49.9,56.1,58.8c127.7,43.4,239.6,124,321.1,231.4c25.2,34.2,69.8,51,113.1,38.8
	c50.8-14.4,82.1-63.9,75.3-114.7C189.9,2983.7,206,2890.7,247.7,2808.3L247.7,2808.3z"/>
<path class="st1" d="M534.2,119.1c-24.5-26.6-51.5-51.4-75.9-65.7c-33.4-19.6-157.3-72-233.5-30.9C135.2,70.9,19.8,291,28,325.3
	c6.5,27.2,26,48,50.3,57.4c45.5,17.6,88.5,40.3,128.3,67.5h327.6V119.1z"/>
<path class="st2" d="M54.5,389.2c42.3,16.4,82.5,37.2,120,61.9h31.2c-39.9-27.2-82.9-49.9-128.3-67.5C53,374.3,33.5,353.5,27,326.3
	C18.8,292,134.2,71.9,223.8,23.5c5.5-3,11.3-5.5,17.3-7.5c-14.2,2.3-27.8,6.5-40.1,13.1C111.4,77.5-4,297.6,4.2,331.9
	C10.7,359.1,30.2,379.9,54.5,389.2z"/>
</svg>
