<?xml version="1.0" encoding="utf-8"?>
<!-- Generator: Adobe Illustrator 22.0.1, SVG Export Plug-In . SVG Version: 6.00 Build 0)  -->
<svg version="1.1" id="Capa_1" xmlns="http://www.w3.org/2000/svg" xmlns:xlink="http://www.w3.org/1999/xlink" x="0px" y="0px"
	 viewBox="0 0 306.7 611.3" style="enable-background:new 0 0 306.7 611.3;" xml:space="preserve">
<style type="text/css">
	.st0{opacity:0.2;fill:#23BDF0;}
	.st1{fill:#40BDFF;}
</style>
<path class="st0" d="M286.2,262.5c8.8-20.3,10.2-43.9,2.3-66.4c-7.2-20.6-95.9-117.7-160.3-147.1C107.9,39.7,53.9,22,0,21v459.2
	c36.9,26.7,70.8,57.8,100.8,92.7c23.7,28.4,63.4,40.6,100.3,27.6c43.3-15.2,67.9-59.9,59.3-103.7
	C245.4,417.9,254.4,336.2,286.2,262.5L286.2,262.5z"/>
<path class="st1" d="M291.7,252.9c9-20.7,10.4-44.7,2.4-67.7c-7.4-20.9-97.7-120-163.4-149.9C110,25.8,54.9,7.8,0,6.8v14.1
	c52.1,2.5,102.7,19.2,122.4,28.2C188.1,79,278.4,178,285.8,199c8.1,23,6.6,47-2.4,67.7l0,0c-32.5,75.2-41.6,158.4-26.3,238.8
	c4,20.4-1.7,41.8-10.4,59.6c14.8-20.5,23.8-47.5,18.7-73.4C250.1,411.2,259.3,328.1,291.7,252.9L291.7,252.9z"/>
</svg>
