<?xml version="1.0" encoding="utf-8"?>
<!-- Generator: Adobe Illustrator 23.0.1, SVG Export Plug-In . SVG Version: 6.00 Build 0)  -->
<svg version="1.1" id="Capa_1" xmlns="http://www.w3.org/2000/svg" xmlns:xlink="http://www.w3.org/1999/xlink" x="0px" y="0px"
	 viewBox="0 0 109.5 185.7" style="enable-background:new 0 0 109.5 185.7;" xml:space="preserve">
<style type="text/css">
	.st0{fill:#FFFFFF;}
	.st1{clip-path:url(#SVGID_2_);fill:#1C8FC7;}
	.st2{clip-path:url(#SVGID_2_);fill:#1C8EC6;}
	.st3{clip-path:url(#SVGID_2_);fill:#1B8CC5;}
	.st4{clip-path:url(#SVGID_2_);fill:#1B8BC4;}
	.st5{clip-path:url(#SVGID_2_);fill:#1B8AC3;}
	.st6{clip-path:url(#SVGID_2_);fill:#1B89C3;}
	.st7{clip-path:url(#SVGID_2_);fill:#1A88C2;}
	.st8{clip-path:url(#SVGID_2_);fill:#1A87C1;}
	.st9{clip-path:url(#SVGID_2_);fill:#1A86C0;}
	.st10{clip-path:url(#SVGID_2_);fill:#1A85C0;}
	.st11{clip-path:url(#SVGID_2_);fill:#1983BF;}
	.st12{clip-path:url(#SVGID_2_);fill:#1982BE;}
	.st13{clip-path:url(#SVGID_2_);fill:#1981BD;}
	.st14{clip-path:url(#SVGID_2_);fill:#1980BD;}
	.st15{clip-path:url(#SVGID_2_);fill:#187FBC;}
	.st16{clip-path:url(#SVGID_2_);fill:#187EBB;}
	.st17{clip-path:url(#SVGID_2_);fill:#187DBA;}
	.st18{clip-path:url(#SVGID_2_);fill:#187CB9;}
	.st19{clip-path:url(#SVGID_2_);fill:#177BB9;}
	.st20{clip-path:url(#SVGID_2_);fill:#177AB8;}
	.st21{clip-path:url(#SVGID_2_);fill:#1779B7;}
	.st22{clip-path:url(#SVGID_2_);fill:#1778B6;}
	.st23{clip-path:url(#SVGID_2_);fill:#1677B6;}
	.st24{clip-path:url(#SVGID_2_);fill:#1676B5;}
	.st25{clip-path:url(#SVGID_2_);fill:#1675B4;}
	.st26{clip-path:url(#SVGID_2_);fill:#1673B3;}
	.st27{clip-path:url(#SVGID_2_);fill:#1672B2;}
	.st28{clip-path:url(#SVGID_2_);fill:#1571B2;}
	.st29{clip-path:url(#SVGID_2_);fill:#1570B1;}
	.st30{clip-path:url(#SVGID_2_);fill:#156FB0;}
	.st31{clip-path:url(#SVGID_2_);fill:#156EAF;}
	.st32{clip-path:url(#SVGID_2_);fill:#146DAF;}
	.st33{clip-path:url(#SVGID_2_);fill:#146CAE;}
	.st34{clip-path:url(#SVGID_2_);fill:#146BAD;}
	.st35{clip-path:url(#SVGID_2_);fill:#146CAD;}
	.st36{clip-path:url(#SVGID_2_);fill:#146DAE;}
	.st37{clip-path:url(#SVGID_2_);fill:#146EAE;}
	.st38{clip-path:url(#SVGID_2_);fill:#146FAF;}
	.st39{clip-path:url(#SVGID_2_);fill:#1470AF;}
	.st40{clip-path:url(#SVGID_2_);fill:#1471B0;}
	.st41{clip-path:url(#SVGID_2_);fill:#1472B0;}
	.st42{clip-path:url(#SVGID_2_);fill:#1473B0;}
	.st43{clip-path:url(#SVGID_2_);fill:#1474B1;}
	.st44{clip-path:url(#SVGID_2_);fill:#1475B1;}
	.st45{clip-path:url(#SVGID_2_);fill:#1476B2;}
	.st46{clip-path:url(#SVGID_2_);fill:#1478B2;}
	.st47{clip-path:url(#SVGID_2_);fill:#1479B3;}
	.st48{clip-path:url(#SVGID_2_);fill:#147AB3;}
	.st49{clip-path:url(#SVGID_2_);fill:#147BB4;}
	.st50{clip-path:url(#SVGID_2_);fill:#147CB4;}
	.st51{clip-path:url(#SVGID_2_);fill:#147DB4;}
	.st52{clip-path:url(#SVGID_2_);fill:#147EB5;}
	.st53{clip-path:url(#SVGID_2_);fill:#147FB5;}
	.st54{clip-path:url(#SVGID_2_);fill:#1480B6;}
	.st55{clip-path:url(#SVGID_2_);fill:#1481B6;}
	.st56{clip-path:url(#SVGID_2_);fill:#1482B7;}
	.st57{clip-path:url(#SVGID_2_);fill:#1483B7;}
	.st58{clip-path:url(#SVGID_2_);fill:#1484B7;}
	.st59{clip-path:url(#SVGID_2_);fill:#1485B8;}
	.st60{clip-path:url(#SVGID_2_);fill:#1486B8;}
	.st61{clip-path:url(#SVGID_2_);fill:#1487B9;}
	.st62{clip-path:url(#SVGID_2_);fill:#1488B9;}
	.st63{clip-path:url(#SVGID_2_);fill:#1489BA;}
	.st64{clip-path:url(#SVGID_2_);fill:#148ABA;}
	.st65{clip-path:url(#SVGID_2_);fill:#148BBA;}
	.st66{clip-path:url(#SVGID_2_);fill:#148CBB;}
	.st67{clip-path:url(#SVGID_2_);fill:#148EBB;}
	.st68{clip-path:url(#SVGID_2_);fill:#148FBC;}
	.st69{clip-path:url(#SVGID_2_);fill:#1490BC;}
	.st70{clip-path:url(#SVGID_2_);fill:#1491BC;}
	.st71{clip-path:url(#SVGID_2_);fill:#1492BD;}
	.st72{clip-path:url(#SVGID_2_);fill:#1493BD;}
	.st73{clip-path:url(#SVGID_2_);fill:#1494BE;}
	.st74{clip-path:url(#SVGID_2_);fill:#1495BE;}
	.st75{clip-path:url(#SVGID_2_);fill:#1496BF;}
	.st76{clip-path:url(#SVGID_2_);fill:#1497BF;}
	.st77{clip-path:url(#SVGID_2_);fill:#1498BF;}
	.st78{clip-path:url(#SVGID_2_);fill:#1499C0;}
	.st79{clip-path:url(#SVGID_2_);fill:#149AC0;}
	.st80{clip-path:url(#SVGID_2_);fill:#149BC1;}
	.st81{clip-path:url(#SVGID_2_);fill:#149CC1;}
	.st82{clip-path:url(#SVGID_2_);fill:#149EC2;}
	.st83{clip-path:url(#SVGID_2_);fill:#149FC2;}
	.st84{clip-path:url(#SVGID_2_);fill:#14A0C3;}
	.st85{clip-path:url(#SVGID_2_);fill:#14A1C3;}
	.st86{clip-path:url(#SVGID_2_);fill:#14A2C4;}
	.st87{clip-path:url(#SVGID_2_);fill:#14A3C4;}
	.st88{clip-path:url(#SVGID_2_);fill:#14A4C5;}
	.st89{clip-path:url(#SVGID_2_);fill:#14A6C5;}
	.st90{clip-path:url(#SVGID_2_);fill:#14A7C6;}
	.st91{fill:#146BC1;}
	.st92{clip-path:url(#SVGID_4_);fill:#1C8FC7;}
	.st93{clip-path:url(#SVGID_4_);fill:#1C8EC6;}
	.st94{clip-path:url(#SVGID_4_);fill:#1B8CC5;}
	.st95{clip-path:url(#SVGID_4_);fill:#1B8BC4;}
	.st96{clip-path:url(#SVGID_4_);fill:#1B8AC3;}
	.st97{clip-path:url(#SVGID_4_);fill:#1B89C3;}
	.st98{clip-path:url(#SVGID_4_);fill:#1A88C2;}
	.st99{clip-path:url(#SVGID_4_);fill:#1A87C1;}
	.st100{clip-path:url(#SVGID_4_);fill:#1A86C0;}
	.st101{clip-path:url(#SVGID_4_);fill:#1A85C0;}
	.st102{clip-path:url(#SVGID_4_);fill:#1983BF;}
	.st103{clip-path:url(#SVGID_4_);fill:#1982BE;}
	.st104{clip-path:url(#SVGID_4_);fill:#1981BD;}
	.st105{clip-path:url(#SVGID_4_);fill:#1980BD;}
	.st106{clip-path:url(#SVGID_4_);fill:#187FBC;}
	.st107{clip-path:url(#SVGID_4_);fill:#187EBB;}
	.st108{clip-path:url(#SVGID_4_);fill:#187DBA;}
	.st109{clip-path:url(#SVGID_4_);fill:#187CB9;}
	.st110{clip-path:url(#SVGID_4_);fill:#177BB9;}
	.st111{clip-path:url(#SVGID_4_);fill:#177AB8;}
	.st112{clip-path:url(#SVGID_4_);fill:#1779B7;}
	.st113{clip-path:url(#SVGID_4_);fill:#1778B6;}
	.st114{clip-path:url(#SVGID_4_);fill:#1677B6;}
	.st115{clip-path:url(#SVGID_4_);fill:#1676B5;}
	.st116{clip-path:url(#SVGID_4_);fill:#1675B4;}
	.st117{clip-path:url(#SVGID_4_);fill:#1673B3;}
	.st118{clip-path:url(#SVGID_4_);fill:#1672B2;}
	.st119{clip-path:url(#SVGID_4_);fill:#1571B2;}
	.st120{clip-path:url(#SVGID_4_);fill:#1570B1;}
	.st121{clip-path:url(#SVGID_4_);fill:#156FB0;}
	.st122{clip-path:url(#SVGID_4_);fill:#156EAF;}
	.st123{clip-path:url(#SVGID_4_);fill:#146DAF;}
	.st124{clip-path:url(#SVGID_4_);fill:#146CAE;}
	.st125{clip-path:url(#SVGID_4_);fill:#146BAD;}
	.st126{clip-path:url(#SVGID_4_);fill:#146CAD;}
	.st127{clip-path:url(#SVGID_4_);fill:#146DAE;}
	.st128{clip-path:url(#SVGID_4_);fill:#146EAE;}
	.st129{clip-path:url(#SVGID_4_);fill:#146FAF;}
	.st130{clip-path:url(#SVGID_4_);fill:#1470AF;}
	.st131{clip-path:url(#SVGID_4_);fill:#1471B0;}
	.st132{clip-path:url(#SVGID_4_);fill:#1472B0;}
	.st133{clip-path:url(#SVGID_4_);fill:#1473B0;}
	.st134{clip-path:url(#SVGID_4_);fill:#1474B1;}
	.st135{clip-path:url(#SVGID_4_);fill:#1475B1;}
	.st136{clip-path:url(#SVGID_4_);fill:#1476B2;}
	.st137{clip-path:url(#SVGID_4_);fill:#1478B2;}
	.st138{clip-path:url(#SVGID_4_);fill:#1479B3;}
	.st139{clip-path:url(#SVGID_4_);fill:#147AB3;}
	.st140{clip-path:url(#SVGID_4_);fill:#147BB4;}
	.st141{clip-path:url(#SVGID_4_);fill:#147CB4;}
	.st142{clip-path:url(#SVGID_4_);fill:#147DB4;}
	.st143{clip-path:url(#SVGID_4_);fill:#147EB5;}
	.st144{clip-path:url(#SVGID_4_);fill:#147FB5;}
	.st145{clip-path:url(#SVGID_4_);fill:#1480B6;}
	.st146{clip-path:url(#SVGID_4_);fill:#1481B6;}
	.st147{clip-path:url(#SVGID_4_);fill:#1482B7;}
	.st148{clip-path:url(#SVGID_4_);fill:#1483B7;}
	.st149{clip-path:url(#SVGID_4_);fill:#1484B7;}
	.st150{clip-path:url(#SVGID_4_);fill:#1485B8;}
	.st151{clip-path:url(#SVGID_4_);fill:#1486B8;}
	.st152{clip-path:url(#SVGID_4_);fill:#1487B9;}
	.st153{clip-path:url(#SVGID_4_);fill:#1488B9;}
	.st154{clip-path:url(#SVGID_4_);fill:#1489BA;}
	.st155{clip-path:url(#SVGID_4_);fill:#148ABA;}
	.st156{clip-path:url(#SVGID_4_);fill:#148BBA;}
	.st157{clip-path:url(#SVGID_4_);fill:#148CBB;}
	.st158{clip-path:url(#SVGID_4_);fill:#148EBB;}
	.st159{clip-path:url(#SVGID_4_);fill:#148FBC;}
	.st160{clip-path:url(#SVGID_4_);fill:#1490BC;}
	.st161{clip-path:url(#SVGID_4_);fill:#1491BC;}
	.st162{clip-path:url(#SVGID_4_);fill:#1492BD;}
	.st163{clip-path:url(#SVGID_4_);fill:#1493BD;}
	.st164{clip-path:url(#SVGID_4_);fill:#1494BE;}
	.st165{clip-path:url(#SVGID_4_);fill:#1495BE;}
	.st166{clip-path:url(#SVGID_4_);fill:#1496BF;}
	.st167{clip-path:url(#SVGID_4_);fill:#1497BF;}
	.st168{clip-path:url(#SVGID_4_);fill:#1498BF;}
	.st169{clip-path:url(#SVGID_4_);fill:#1499C0;}
	.st170{clip-path:url(#SVGID_4_);fill:#149AC0;}
	.st171{clip-path:url(#SVGID_4_);fill:#149BC1;}
	.st172{clip-path:url(#SVGID_4_);fill:#149CC1;}
	.st173{clip-path:url(#SVGID_4_);fill:#149EC2;}
	.st174{clip-path:url(#SVGID_4_);fill:#149FC2;}
	.st175{clip-path:url(#SVGID_4_);fill:#14A0C3;}
	.st176{clip-path:url(#SVGID_4_);fill:#14A1C3;}
	.st177{clip-path:url(#SVGID_4_);fill:#14A2C4;}
	.st178{clip-path:url(#SVGID_4_);fill:#14A3C4;}
	.st179{clip-path:url(#SVGID_4_);fill:#14A4C5;}
	.st180{clip-path:url(#SVGID_4_);fill:#14A6C5;}
	.st181{clip-path:url(#SVGID_4_);fill:#14A7C6;}
	.st182{enable-background:new    ;}
</style>
<g>
	<path class="st0" d="M60.6,55.2c0-4.7,0.2-9.4,0-14.1C60,29.5,50.2,20.4,38.7,20.4c-11.6,0-21.5,9.2-21.9,20.7
		c-0.3,9.3-0.3,18.7,0,28c0.4,11.5,10.3,20.7,21.9,20.7s21.4-9.2,21.9-20.7C60.8,64.4,60.6,59.8,60.6,55.2z"/>
</g>
<g>
	<g>
		<defs>
			<path id="SVGID_1_" d="M60.6,55.2c0,4.6,0.2,9.2,0,13.8C60,80.6,50.2,89.7,38.7,89.7c-11.6,0-21.5-9.2-21.9-20.7
				c-0.3-9.3-0.3-18.7,0-28c0.4-11.5,10.3-20.7,21.9-20.7S60.1,29.5,60.6,41C60.8,45.8,60.6,50.5,60.6,55.2z M58.5,41.6
				c0-10.5-9.7-19.3-18.9-19c0,1.7,0,3.4,0,5.2c-0.7,0-1.2,0-2,0c0-1.8,0-3.6,0-5.4c-11.4,0.5-19,10.6-18.7,19.1
				c5,0.7,10,1.3,15.1,2c-0.1,0.7-0.1,1.2-0.2,1.9c-5-0.6-10-1.2-14.9-1.9c-0.1,0.5-0.1,0.7-0.1,1c0,8.1-0.1,16.2,0.1,24.3
				c0.3,10.3,9.4,18.7,19.8,18.8c10.5,0,19.6-8.4,19.9-18.8c0.2-8.1,0.1-16.1,0.1-24.2c0-0.3-0.1-0.6-0.2-1.1
				c-4.9,0.6-9.8,1.2-14.8,1.9c-0.1-0.7-0.1-1.3-0.2-1.9C48.6,42.9,53.5,42.2,58.5,41.6z"/>
		</defs>
		<clipPath id="SVGID_2_">
			<use xlink:href="#SVGID_1_"  style="overflow:visible;"/>
		</clipPath>
		<rect x="18.6" y="85.8" class="st1" width="40.2" height="1.8"/>
		<rect x="18.6" y="81.9" class="st2" width="40.2" height="3.9"/>
		<rect x="18.6" y="78" class="st3" width="40.2" height="3.9"/>
		<rect x="18.6" y="74.2" class="st4" width="40.2" height="3.9"/>
		<rect x="18.6" y="72.9" class="st4" width="40.2" height="1.3"/>
		<rect x="18.6" y="71.6" class="st5" width="40.2" height="1.3"/>
		<rect x="18.6" y="70.3" class="st6" width="40.2" height="1.3"/>
		<rect x="18.6" y="69.1" class="st7" width="40.2" height="1.3"/>
		<rect x="18.6" y="67.8" class="st8" width="40.2" height="1.3"/>
		<rect x="18.6" y="66.5" class="st9" width="40.2" height="1.3"/>
		<rect x="18.6" y="65.2" class="st10" width="40.2" height="1.3"/>
		<rect x="18.6" y="64" class="st11" width="40.2" height="1.3"/>
		<rect x="18.6" y="62.7" class="st12" width="40.2" height="1.3"/>
		<rect x="18.6" y="61.4" class="st13" width="40.2" height="1.3"/>
		<rect x="18.6" y="60.1" class="st14" width="40.2" height="1.3"/>
		<rect x="18.6" y="58.9" class="st15" width="40.2" height="1.3"/>
		<rect x="18.6" y="57.6" class="st16" width="40.2" height="1.3"/>
		<rect x="18.6" y="56.8" class="st16" width="40.2" height="0.8"/>
		<rect x="18.6" y="56" class="st17" width="40.2" height="0.8"/>
		<rect x="18.6" y="55.2" class="st18" width="40.2" height="0.8"/>
		<rect x="18.6" y="54.4" class="st19" width="40.2" height="0.8"/>
		<rect x="18.6" y="53.6" class="st20" width="40.2" height="0.8"/>
		<rect x="18.6" y="52.8" class="st21" width="40.2" height="0.8"/>
		<rect x="18.6" y="51.9" class="st22" width="40.2" height="0.8"/>
		<rect x="18.6" y="51.1" class="st23" width="40.2" height="0.8"/>
		<rect x="18.6" y="50.3" class="st24" width="40.2" height="0.8"/>
		<rect x="18.6" y="49.5" class="st25" width="40.2" height="0.8"/>
		<rect x="18.6" y="48.7" class="st26" width="40.2" height="0.8"/>
		<rect x="18.6" y="47.9" class="st27" width="40.2" height="0.8"/>
		<rect x="18.6" y="47.1" class="st28" width="40.2" height="0.8"/>
		<rect x="18.6" y="46.3" class="st29" width="40.2" height="0.8"/>
		<rect x="18.6" y="45.5" class="st30" width="40.2" height="0.8"/>
		<rect x="18.6" y="44.7" class="st31" width="40.2" height="0.8"/>
		<rect x="18.6" y="43.9" class="st32" width="40.2" height="0.8"/>
		<rect x="18.6" y="43.1" class="st33" width="40.2" height="0.8"/>
		<rect x="18.6" y="42.3" class="st34" width="40.2" height="0.8"/>
		<rect x="18.6" y="42.1" class="st34" width="40.2" height="0.2"/>
		<rect x="18.6" y="41.9" class="st35" width="40.2" height="0.2"/>
		<rect x="18.6" y="41.7" class="st36" width="40.2" height="0.2"/>
		<rect x="18.6" y="41.5" class="st37" width="40.2" height="0.2"/>
		<rect x="18.6" y="41.3" class="st38" width="40.2" height="0.2"/>
		<rect x="18.6" y="41" class="st39" width="40.2" height="0.2"/>
		<rect x="18.6" y="40.8" class="st40" width="40.2" height="0.2"/>
		<rect x="18.6" y="40.6" class="st41" width="40.2" height="0.2"/>
		<rect x="18.6" y="40.4" class="st42" width="40.2" height="0.2"/>
		<rect x="18.6" y="40.2" class="st43" width="40.2" height="0.2"/>
		<rect x="18.6" y="40" class="st44" width="40.2" height="0.2"/>
		<rect x="18.6" y="39.8" class="st45" width="40.2" height="0.2"/>
		<rect x="18.6" y="39.6" class="st46" width="40.2" height="0.2"/>
		<rect x="18.6" y="39.4" class="st47" width="40.2" height="0.2"/>
		<rect x="18.6" y="39.2" class="st48" width="40.2" height="0.2"/>
		<rect x="18.6" y="39" class="st49" width="40.2" height="0.2"/>
		<rect x="18.6" y="38.8" class="st50" width="40.2" height="0.2"/>
		<rect x="18.6" y="38.6" class="st51" width="40.2" height="0.2"/>
		<rect x="18.6" y="38.4" class="st52" width="40.2" height="0.2"/>
		<rect x="18.6" y="38.2" class="st53" width="40.2" height="0.2"/>
		<rect x="18.6" y="38" class="st54" width="40.2" height="0.2"/>
		<rect x="18.6" y="37.8" class="st55" width="40.2" height="0.2"/>
		<rect x="18.6" y="37.6" class="st56" width="40.2" height="0.2"/>
		<rect x="18.6" y="37.4" class="st57" width="40.2" height="0.2"/>
		<rect x="18.6" y="37.1" class="st57" width="40.2" height="0.3"/>
		<rect x="18.6" y="36.8" class="st58" width="40.2" height="0.3"/>
		<rect x="18.6" y="36.5" class="st59" width="40.2" height="0.3"/>
		<rect x="18.6" y="36.2" class="st60" width="40.2" height="0.3"/>
		<rect x="18.6" y="35.9" class="st61" width="40.2" height="0.3"/>
		<rect x="18.6" y="35.7" class="st62" width="40.2" height="0.3"/>
		<rect x="18.6" y="35.4" class="st63" width="40.2" height="0.3"/>
		<rect x="18.6" y="35.1" class="st64" width="40.2" height="0.3"/>
		<rect x="18.6" y="34.8" class="st65" width="40.2" height="0.3"/>
		<rect x="18.6" y="34.5" class="st66" width="40.2" height="0.3"/>
		<rect x="18.6" y="34.2" class="st67" width="40.2" height="0.3"/>
		<rect x="18.6" y="33.9" class="st68" width="40.2" height="0.3"/>
		<rect x="18.6" y="33.7" class="st69" width="40.2" height="0.3"/>
		<rect x="18.6" y="33.4" class="st70" width="40.2" height="0.3"/>
		<rect x="18.6" y="33.1" class="st71" width="40.2" height="0.3"/>
		<rect x="18.6" y="32.8" class="st72" width="40.2" height="0.3"/>
		<rect x="18.6" y="32.5" class="st73" width="40.2" height="0.3"/>
		<rect x="18.6" y="32.2" class="st74" width="40.2" height="0.3"/>
		<rect x="18.6" y="31.9" class="st75" width="40.2" height="0.3"/>
		<rect x="18.6" y="31.6" class="st76" width="40.2" height="0.3"/>
		<rect x="18.6" y="31.2" class="st76" width="40.2" height="0.5"/>
		<rect x="18.6" y="30.7" class="st77" width="40.2" height="0.5"/>
		<rect x="18.6" y="30.2" class="st78" width="40.2" height="0.5"/>
		<rect x="18.6" y="29.7" class="st79" width="40.2" height="0.5"/>
		<rect x="18.6" y="29.3" class="st80" width="40.2" height="0.5"/>
		<rect x="18.6" y="28.8" class="st81" width="40.2" height="0.5"/>
		<rect x="18.6" y="28.3" class="st82" width="40.2" height="0.5"/>
		<rect x="18.6" y="27.8" class="st83" width="40.2" height="0.5"/>
		<rect x="18.6" y="27.4" class="st84" width="40.2" height="0.5"/>
		<rect x="18.6" y="26.9" class="st85" width="40.2" height="0.5"/>
		<rect x="18.6" y="26.4" class="st86" width="40.2" height="0.5"/>
		<rect x="18.6" y="25.9" class="st87" width="40.2" height="0.5"/>
		<rect x="18.6" y="24.5" class="st87" width="40.2" height="1.4"/>
		<rect x="18.6" y="23.1" class="st88" width="40.2" height="1.4"/>
		<rect x="18.6" y="22.3" class="st89" width="40.2" height="0.8"/>
		<rect x="16.5" y="89.6" class="st1" width="44.3" height="0.1"/>
		<rect x="16.5" y="85.8" class="st1" width="44.3" height="3.9"/>
		<rect x="16.5" y="81.9" class="st2" width="44.3" height="3.9"/>
		<rect x="16.5" y="78" class="st3" width="44.3" height="3.9"/>
		<rect x="16.5" y="74.2" class="st4" width="44.3" height="3.9"/>
		<rect x="16.5" y="72.9" class="st4" width="44.3" height="1.3"/>
		<rect x="16.5" y="71.6" class="st5" width="44.3" height="1.3"/>
		<rect x="16.5" y="70.3" class="st6" width="44.3" height="1.3"/>
		<rect x="16.5" y="69.1" class="st7" width="44.3" height="1.3"/>
		<rect x="16.5" y="67.8" class="st8" width="44.3" height="1.3"/>
		<rect x="16.5" y="66.5" class="st9" width="44.3" height="1.3"/>
		<rect x="16.5" y="65.2" class="st10" width="44.3" height="1.3"/>
		<rect x="16.5" y="64" class="st11" width="44.3" height="1.3"/>
		<rect x="16.5" y="62.7" class="st12" width="44.3" height="1.3"/>
		<rect x="16.5" y="61.4" class="st13" width="44.3" height="1.3"/>
		<rect x="16.5" y="60.1" class="st14" width="44.3" height="1.3"/>
		<rect x="16.5" y="58.9" class="st15" width="44.3" height="1.3"/>
		<rect x="16.5" y="57.6" class="st16" width="44.3" height="1.3"/>
		<rect x="16.5" y="56.8" class="st16" width="44.3" height="0.8"/>
		<rect x="16.5" y="56" class="st17" width="44.3" height="0.8"/>
		<rect x="16.5" y="55.2" class="st18" width="44.3" height="0.8"/>
		<rect x="16.5" y="54.4" class="st19" width="44.3" height="0.8"/>
		<rect x="16.5" y="53.6" class="st20" width="44.3" height="0.8"/>
		<rect x="16.5" y="52.8" class="st21" width="44.3" height="0.8"/>
		<rect x="16.5" y="51.9" class="st22" width="44.3" height="0.8"/>
		<rect x="16.5" y="51.1" class="st23" width="44.3" height="0.8"/>
		<rect x="16.5" y="50.3" class="st24" width="44.3" height="0.8"/>
		<rect x="16.5" y="49.5" class="st25" width="44.3" height="0.8"/>
		<rect x="16.5" y="48.7" class="st26" width="44.3" height="0.8"/>
		<rect x="16.5" y="47.9" class="st27" width="44.3" height="0.8"/>
		<rect x="16.5" y="47.1" class="st28" width="44.3" height="0.8"/>
		<rect x="16.5" y="46.3" class="st29" width="44.3" height="0.8"/>
		<rect x="16.5" y="45.5" class="st30" width="44.3" height="0.8"/>
		<rect x="16.5" y="44.7" class="st31" width="44.3" height="0.8"/>
		<rect x="16.5" y="43.9" class="st32" width="44.3" height="0.8"/>
		<rect x="16.5" y="43.1" class="st33" width="44.3" height="0.8"/>
		<rect x="16.5" y="42.3" class="st34" width="44.3" height="0.8"/>
		<rect x="16.5" y="42.1" class="st34" width="44.3" height="0.2"/>
		<rect x="16.5" y="41.9" class="st35" width="44.3" height="0.2"/>
		<rect x="16.5" y="41.7" class="st36" width="44.3" height="0.2"/>
		<rect x="16.5" y="41.5" class="st37" width="44.3" height="0.2"/>
		<rect x="16.5" y="41.3" class="st38" width="44.3" height="0.2"/>
		<rect x="16.5" y="41" class="st39" width="44.3" height="0.2"/>
		<rect x="16.5" y="40.8" class="st40" width="44.3" height="0.2"/>
		<rect x="16.5" y="40.6" class="st41" width="44.3" height="0.2"/>
		<rect x="16.5" y="40.4" class="st42" width="44.3" height="0.2"/>
		<rect x="16.5" y="40.2" class="st43" width="44.3" height="0.2"/>
		<rect x="16.5" y="40" class="st44" width="44.3" height="0.2"/>
		<rect x="16.5" y="39.8" class="st45" width="44.3" height="0.2"/>
		<rect x="16.5" y="39.6" class="st46" width="44.3" height="0.2"/>
		<rect x="16.5" y="39.4" class="st47" width="44.3" height="0.2"/>
		<rect x="16.5" y="39.2" class="st48" width="44.3" height="0.2"/>
		<rect x="16.5" y="39" class="st49" width="44.3" height="0.2"/>
		<rect x="16.5" y="38.8" class="st50" width="44.3" height="0.2"/>
		<rect x="16.5" y="38.6" class="st51" width="44.3" height="0.2"/>
		<rect x="16.5" y="38.4" class="st52" width="44.3" height="0.2"/>
		<rect x="16.5" y="38.2" class="st53" width="44.3" height="0.2"/>
		<rect x="16.5" y="38" class="st54" width="44.3" height="0.2"/>
		<rect x="16.5" y="37.8" class="st55" width="44.3" height="0.2"/>
		<rect x="16.5" y="37.6" class="st56" width="44.3" height="0.2"/>
		<rect x="16.5" y="37.4" class="st57" width="44.3" height="0.2"/>
		<rect x="16.5" y="37.1" class="st57" width="44.3" height="0.3"/>
		<rect x="16.5" y="36.8" class="st58" width="44.3" height="0.3"/>
		<rect x="16.5" y="36.5" class="st59" width="44.3" height="0.3"/>
		<rect x="16.5" y="36.2" class="st60" width="44.3" height="0.3"/>
		<rect x="16.5" y="35.9" class="st61" width="44.3" height="0.3"/>
		<rect x="16.5" y="35.7" class="st62" width="44.3" height="0.3"/>
		<rect x="16.5" y="35.4" class="st63" width="44.3" height="0.3"/>
		<rect x="16.5" y="35.1" class="st64" width="44.3" height="0.3"/>
		<rect x="16.5" y="34.8" class="st65" width="44.3" height="0.3"/>
		<rect x="16.5" y="34.5" class="st66" width="44.3" height="0.3"/>
		<rect x="16.5" y="34.2" class="st67" width="44.3" height="0.3"/>
		<rect x="16.5" y="33.9" class="st68" width="44.3" height="0.3"/>
		<rect x="16.5" y="33.7" class="st69" width="44.3" height="0.3"/>
		<rect x="16.5" y="33.4" class="st70" width="44.3" height="0.3"/>
		<rect x="16.5" y="33.1" class="st71" width="44.3" height="0.3"/>
		<rect x="16.5" y="32.8" class="st72" width="44.3" height="0.3"/>
		<rect x="16.5" y="32.5" class="st73" width="44.3" height="0.3"/>
		<rect x="16.5" y="32.2" class="st74" width="44.3" height="0.3"/>
		<rect x="16.5" y="31.9" class="st75" width="44.3" height="0.3"/>
		<rect x="16.5" y="31.6" class="st76" width="44.3" height="0.3"/>
		<rect x="16.5" y="31.2" class="st76" width="44.3" height="0.5"/>
		<rect x="16.5" y="30.7" class="st77" width="44.3" height="0.5"/>
		<rect x="16.5" y="30.2" class="st78" width="44.3" height="0.5"/>
		<rect x="16.5" y="29.7" class="st79" width="44.3" height="0.5"/>
		<rect x="16.5" y="29.3" class="st80" width="44.3" height="0.5"/>
		<rect x="16.5" y="28.8" class="st81" width="44.3" height="0.5"/>
		<rect x="16.5" y="28.3" class="st82" width="44.3" height="0.5"/>
		<rect x="16.5" y="27.8" class="st83" width="44.3" height="0.5"/>
		<rect x="16.5" y="27.4" class="st84" width="44.3" height="0.5"/>
		<rect x="16.5" y="26.9" class="st85" width="44.3" height="0.5"/>
		<rect x="16.5" y="26.4" class="st86" width="44.3" height="0.5"/>
		<rect x="16.5" y="25.9" class="st87" width="44.3" height="0.5"/>
		<rect x="16.5" y="24.5" class="st87" width="44.3" height="1.4"/>
		<rect x="16.5" y="23.1" class="st88" width="44.3" height="1.4"/>
		<rect x="16.5" y="21.7" class="st89" width="44.3" height="1.4"/>
		<rect x="16.5" y="20.3" class="st90" width="44.3" height="1.4"/>
		<path class="st90" d="M60.8,20.3H16.5H60.8z"/>
	</g>
</g>
<g>
	<path class="st91" d="M39.6,48.2c-0.8,0-1.2,0-2,0c0-0.6,0-1.2,0-1.8c0-1.6,0.4-3.4-1.2-4.7C36.1,41.5,36,40.6,36,40
		c0-2.1,0-4.3,0-6.4c0-1.9,1.2-3.1,2.7-3.1c1.5,0.1,2.5,1.2,2.5,3.1c0,1.9,0,3.7,0,5.6c0,1.3,0,2.6-1.2,3.6
		c-0.3,0.2-0.4,0.9-0.4,1.3C39.6,45.5,39.6,46.8,39.6,48.2z M38.4,41.1c0.2,0,0.3,0,0.5,0.1c0.1-0.1,0.2-0.3,0.2-0.4
		c0.1-2.5,0.1-4.9,0.1-7.4c0-0.2-0.4-0.4-0.6-0.6c-0.2,0.3-0.6,0.7-0.6,1c-0.1,2.1,0,4.2,0,6.3C38,40.3,38.2,40.7,38.4,41.1z"/>
</g>
<g>
	<path class="st0" d="M38.4,41.1C38.2,40.7,38,40.3,38,40c0-2.1,0-4.2,0-6.3c0-0.3,0.4-0.7,0.6-1c0.2,0.2,0.6,0.4,0.6,0.6
		c0,2.5,0,4.9-0.1,7.4c0,0.1-0.2,0.3-0.2,0.4C38.7,41.1,38.5,41.1,38.4,41.1z"/>
</g>
<g>
	<g>
		<defs>
			<rect id="SVGID_3_" x="72.4" y="17.5" width="1.1" height="153.3"/>
		</defs>
		<clipPath id="SVGID_4_">
			<use xlink:href="#SVGID_3_"  style="overflow:visible;"/>
		</clipPath>
		<rect x="72.4" y="170.6" class="st92" width="1.1" height="0.2"/>
		<rect x="72.4" y="162.1" class="st92" width="1.1" height="8.5"/>
		<rect x="72.4" y="153.6" class="st93" width="1.1" height="8.5"/>
		<rect x="72.4" y="145" class="st94" width="1.1" height="8.5"/>
		<rect x="72.4" y="136.5" class="st95" width="1.1" height="8.5"/>
		<rect x="72.4" y="133.7" class="st95" width="1.1" height="2.8"/>
		<rect x="72.4" y="130.9" class="st96" width="1.1" height="2.8"/>
		<rect x="72.4" y="128" class="st97" width="1.1" height="2.8"/>
		<rect x="72.4" y="125.2" class="st98" width="1.1" height="2.8"/>
		<rect x="72.4" y="122.4" class="st99" width="1.1" height="2.8"/>
		<rect x="72.4" y="119.6" class="st100" width="1.1" height="2.8"/>
		<rect x="72.4" y="116.8" class="st101" width="1.1" height="2.8"/>
		<rect x="72.4" y="114" class="st102" width="1.1" height="2.8"/>
		<rect x="72.4" y="111.1" class="st103" width="1.1" height="2.8"/>
		<rect x="72.4" y="108.3" class="st104" width="1.1" height="2.8"/>
		<rect x="72.4" y="105.5" class="st105" width="1.1" height="2.8"/>
		<rect x="72.4" y="102.7" class="st106" width="1.1" height="2.8"/>
		<rect x="72.4" y="99.9" class="st107" width="1.1" height="2.8"/>
		<rect x="72.4" y="98.1" class="st107" width="1.1" height="1.8"/>
		<rect x="72.4" y="96.3" class="st108" width="1.1" height="1.8"/>
		<rect x="72.4" y="94.5" class="st109" width="1.1" height="1.8"/>
		<rect x="72.4" y="92.7" class="st110" width="1.1" height="1.8"/>
		<rect x="72.4" y="91" class="st111" width="1.1" height="1.8"/>
		<rect x="72.4" y="89.2" class="st112" width="1.1" height="1.8"/>
		<rect x="72.4" y="87.4" class="st113" width="1.1" height="1.8"/>
		<rect x="72.4" y="85.6" class="st114" width="1.1" height="1.8"/>
		<rect x="72.4" y="83.8" class="st115" width="1.1" height="1.8"/>
		<rect x="72.4" y="82.1" class="st116" width="1.1" height="1.8"/>
		<rect x="72.4" y="80.3" class="st117" width="1.1" height="1.8"/>
		<rect x="72.4" y="78.5" class="st118" width="1.1" height="1.8"/>
		<rect x="72.4" y="76.7" class="st119" width="1.1" height="1.8"/>
		<rect x="72.4" y="74.9" class="st120" width="1.1" height="1.8"/>
		<rect x="72.4" y="73.2" class="st121" width="1.1" height="1.8"/>
		<rect x="72.4" y="71.4" class="st122" width="1.1" height="1.8"/>
		<rect x="72.4" y="69.6" class="st123" width="1.1" height="1.8"/>
		<rect x="72.4" y="67.8" class="st124" width="1.1" height="1.8"/>
		<rect x="72.4" y="66" class="st125" width="1.1" height="1.8"/>
		<rect x="72.4" y="65.6" class="st125" width="1.1" height="0.5"/>
		<rect x="72.4" y="65.1" class="st126" width="1.1" height="0.5"/>
		<rect x="72.4" y="64.7" class="st127" width="1.1" height="0.5"/>
		<rect x="72.4" y="64.2" class="st128" width="1.1" height="0.5"/>
		<rect x="72.4" y="63.8" class="st129" width="1.1" height="0.5"/>
		<rect x="72.4" y="63.3" class="st130" width="1.1" height="0.5"/>
		<rect x="72.4" y="62.9" class="st131" width="1.1" height="0.5"/>
		<rect x="72.4" y="62.4" class="st132" width="1.1" height="0.5"/>
		<rect x="72.4" y="62" class="st133" width="1.1" height="0.5"/>
		<rect x="72.4" y="61.5" class="st134" width="1.1" height="0.5"/>
		<rect x="72.4" y="61.1" class="st135" width="1.1" height="0.5"/>
		<rect x="72.4" y="60.6" class="st136" width="1.1" height="0.5"/>
		<rect x="72.4" y="60.2" class="st137" width="1.1" height="0.5"/>
		<rect x="72.4" y="59.7" class="st138" width="1.1" height="0.5"/>
		<rect x="72.4" y="59.3" class="st139" width="1.1" height="0.5"/>
		<rect x="72.4" y="58.8" class="st140" width="1.1" height="0.5"/>
		<rect x="72.4" y="58.4" class="st141" width="1.1" height="0.5"/>
		<rect x="72.4" y="57.9" class="st142" width="1.1" height="0.5"/>
		<rect x="72.4" y="57.5" class="st143" width="1.1" height="0.5"/>
		<rect x="72.4" y="57" class="st144" width="1.1" height="0.5"/>
		<rect x="72.4" y="56.6" class="st145" width="1.1" height="0.5"/>
		<rect x="72.4" y="56.1" class="st146" width="1.1" height="0.5"/>
		<rect x="72.4" y="55.7" class="st147" width="1.1" height="0.5"/>
		<rect x="72.4" y="55.2" class="st148" width="1.1" height="0.5"/>
		<rect x="72.4" y="54.6" class="st148" width="1.1" height="0.6"/>
		<rect x="72.4" y="53.9" class="st149" width="1.1" height="0.6"/>
		<rect x="72.4" y="53.3" class="st150" width="1.1" height="0.6"/>
		<rect x="72.4" y="52.7" class="st151" width="1.1" height="0.6"/>
		<rect x="72.4" y="52" class="st152" width="1.1" height="0.6"/>
		<rect x="72.4" y="51.4" class="st153" width="1.1" height="0.6"/>
		<rect x="72.4" y="50.8" class="st154" width="1.1" height="0.6"/>
		<rect x="72.4" y="50.2" class="st155" width="1.1" height="0.6"/>
		<rect x="72.4" y="49.5" class="st156" width="1.1" height="0.6"/>
		<rect x="72.4" y="48.9" class="st157" width="1.1" height="0.6"/>
		<rect x="72.4" y="48.3" class="st158" width="1.1" height="0.6"/>
		<rect x="72.4" y="47.6" class="st159" width="1.1" height="0.6"/>
		<rect x="72.4" y="47" class="st160" width="1.1" height="0.6"/>
		<rect x="72.4" y="46.4" class="st161" width="1.1" height="0.6"/>
		<rect x="72.4" y="45.7" class="st162" width="1.1" height="0.6"/>
		<rect x="72.4" y="45.1" class="st163" width="1.1" height="0.6"/>
		<rect x="72.4" y="44.5" class="st164" width="1.1" height="0.6"/>
		<rect x="72.4" y="43.8" class="st165" width="1.1" height="0.6"/>
		<rect x="72.4" y="43.2" class="st166" width="1.1" height="0.6"/>
		<rect x="72.4" y="42.6" class="st167" width="1.1" height="0.6"/>
		<rect x="72.4" y="41.5" class="st167" width="1.1" height="1.1"/>
		<rect x="72.4" y="40.5" class="st168" width="1.1" height="1.1"/>
		<rect x="72.4" y="39.4" class="st169" width="1.1" height="1.1"/>
		<rect x="72.4" y="38.4" class="st170" width="1.1" height="1.1"/>
		<rect x="72.4" y="37.3" class="st171" width="1.1" height="1.1"/>
		<rect x="72.4" y="36.3" class="st172" width="1.1" height="1.1"/>
		<rect x="72.4" y="35.2" class="st173" width="1.1" height="1.1"/>
		<rect x="72.4" y="34.2" class="st174" width="1.1" height="1.1"/>
		<rect x="72.4" y="33.1" class="st175" width="1.1" height="1.1"/>
		<rect x="72.4" y="32.1" class="st176" width="1.1" height="1.1"/>
		<rect x="72.4" y="31" class="st177" width="1.1" height="1.1"/>
		<rect x="72.4" y="30" class="st178" width="1.1" height="1.1"/>
		<rect x="72.4" y="26.8" class="st178" width="1.1" height="3.1"/>
		<rect x="72.4" y="23.7" class="st179" width="1.1" height="3.1"/>
		<rect x="72.4" y="20.6" class="st180" width="1.1" height="3.1"/>
		<rect x="72.4" y="17.5" class="st181" width="1.1" height="3.1"/>
	</g>
</g>
<g class="st182">
	<path d="M82.2,34.6c1-0.8,2.3-1.3,4.1-1.4l0.6,2.3c-1.2,0.1-2.2,0.3-3,0.7c-0.8,0.4-1.1,1.1-1.1,2c0,0.7,0.2,1.2,0.6,1.6
		c0.4,0.4,0.9,0.5,1.7,0.5c0.8,0,1.4-0.2,1.9-0.5c0.5-0.3,1.1-0.9,1.7-1.6l2.8-3.2c0.6-0.6,1.2-1.1,1.8-1.4c0.6-0.3,1.4-0.4,2.4-0.4
		c1.4,0,2.5,0.4,3.2,1.2c0.8,0.8,1.1,1.9,1.1,3.3c0,1.5-0.4,2.6-1.2,3.4c-0.8,0.8-2,1.2-3.7,1.4l-0.6-2.2c1.1-0.1,2-0.3,2.6-0.6
		c0.6-0.4,0.9-1,0.9-1.9c0-0.7-0.2-1.2-0.5-1.5c-0.4-0.4-0.9-0.5-1.6-0.5c-0.6,0-1,0.1-1.4,0.3c-0.4,0.2-0.8,0.5-1.2,1l-2.8,3.2
		c-0.7,0.8-1.5,1.5-2.4,2s-1.8,0.7-2.9,0.7c-1.4,0-2.5-0.4-3.3-1.3c-0.8-0.8-1.2-1.9-1.2-3.3C80.7,36.7,81.2,35.5,82.2,34.6z"/>
	<path d="M82.4,45.7c1.1-0.8,2.7-1.1,4.6-1.1h6.7c2.1,0,3.7,0.4,4.7,1.1c1.1,0.7,1.6,2.1,1.6,4c0,1.7-0.5,2.9-1.4,3.7
		c-0.9,0.7-2.3,1.1-4.1,1.1h-1.5v-2.5h1.3c0.9,0,1.5,0,2-0.1c0.5-0.1,0.8-0.3,1.1-0.6c0.3-0.3,0.4-0.8,0.4-1.5
		c0-0.7-0.2-1.3-0.5-1.6c-0.3-0.4-0.7-0.6-1.3-0.7c-0.5-0.1-1.3-0.2-2.2-0.2h-7.5c-1,0-1.7,0.1-2.3,0.2s-0.9,0.4-1.2,0.8
		c-0.2,0.4-0.4,0.8-0.4,1.5c0,0.7,0.1,1.2,0.4,1.5c0.3,0.3,0.7,0.5,1.2,0.6c0.5,0.1,1.2,0.1,2.1,0.1h1.4v2.5h-1.4
		c-1.9,0-3.3-0.4-4.3-1.1c-1-0.7-1.5-1.9-1.5-3.7C80.7,47.8,81.2,46.4,82.4,45.7z"/>
	<path d="M99.9,56.9v3.8c0,1.9-0.4,3.3-1.2,4.2s-2.1,1.3-3.9,1.3c-2.4,0-3.9-0.8-4.4-2.3l-9.5,2.7v-2.6l8.9-2.5v-2.1h-8.9v-2.6H99.9
		z M91.7,60.6c0,1.1,0.2,2,0.7,2.4c0.5,0.5,1.3,0.7,2.5,0.7c0.8,0,1.4-0.1,1.8-0.3c0.4-0.2,0.8-0.5,1-0.9s0.3-1.1,0.3-1.9v-1.2h-6.3
		V60.6z"/>
	<path d="M82.3,70c1.1-0.8,2.6-1.2,4.6-1.2H94c2,0,3.5,0.4,4.5,1.2c1,0.8,1.5,2.1,1.5,4c0,1.8-0.5,3.2-1.5,4c-1,0.8-2.5,1.2-4.5,1.2
		h-7.2c-2,0-3.5-0.4-4.5-1.2c-1.1-0.8-1.6-2.1-1.6-4C80.7,72.1,81.2,70.8,82.3,70z M83.6,75.9c0.6,0.3,1.5,0.5,2.6,0.5h8.3
		c1.2,0,2-0.2,2.6-0.5c0.6-0.3,0.8-1,0.8-2c0-1-0.3-1.7-0.8-2c-0.6-0.3-1.4-0.5-2.6-0.5h-8.3c-1.2,0-2,0.2-2.6,0.5
		c-0.6,0.3-0.9,1-0.9,2C82.8,74.9,83.1,75.6,83.6,75.9z"/>
	<path d="M99.9,81.7v2.6H82.8v4.8h-1.9v-7.5H99.9z"/>
	<path d="M99.9,91v2.6H82.8v4.8h-1.9V91H99.9z"/>
	<path d="M88.9,105.4v5.2H87v-5.2H88.9z"/>
	<path d="M99.9,118.6v4.1c0,2-0.5,3.5-1.4,4.3c-0.9,0.9-2.4,1.3-4.4,1.3h-7c-2.1,0-3.6-0.4-4.7-1.3c-1-0.8-1.5-2.2-1.5-4.2v-4.3
		H99.9z M82.8,122.7c0,0.9,0.2,1.6,0.5,2c0.4,0.4,0.8,0.7,1.5,0.8c0.6,0.1,1.5,0.2,2.8,0.2h6.2c1.1,0,1.9-0.1,2.5-0.2
		c0.6-0.1,1-0.4,1.3-0.8c0.3-0.4,0.4-1.1,0.4-2v-1.4H82.8V122.7z"/>
	<path d="M82.3,131.8c1.1-0.8,2.6-1.2,4.6-1.2H94c2,0,3.5,0.4,4.5,1.2s1.5,2.1,1.5,4c0,1.8-0.5,3.2-1.5,4c-1,0.8-2.5,1.2-4.5,1.2
		h-7.2c-2,0-3.5-0.4-4.5-1.2c-1.1-0.8-1.6-2.1-1.6-4C80.7,133.9,81.2,132.6,82.3,131.8z M83.6,137.7c0.6,0.3,1.5,0.5,2.6,0.5h8.3
		c1.2,0,2-0.2,2.6-0.5c0.6-0.3,0.8-1,0.8-2c0-1-0.3-1.7-0.8-2c-0.6-0.3-1.4-0.5-2.6-0.5h-8.3c-1.2,0-2,0.2-2.6,0.5
		c-0.6,0.3-0.9,1-0.9,2C82.8,136.7,83.1,137.4,83.6,137.7z"/>
	<path d="M99.9,142.9v2.2l-13.6,2l13.6,2.6v1.9l-13.6,2.6l13.7,2v2.2l-19-3v-1.9l14.1-2.6L80.9,148v-2L99.9,142.9z"/>
	<path d="M99.9,160.6v1.8l-12.6,5.4h12.6v2.2h-19v-1.7l13-5.5h-13v-2.2H99.9z"/>
</g>
</svg>
