<?xml version="1.0" encoding="utf-8"?>
<!-- Generator: Adobe Illustrator 22.0.1, SVG Export Plug-In . SVG Version: 6.00 Build 0)  -->
<svg version="1.1" id="Capa_1" xmlns="http://www.w3.org/2000/svg" xmlns:xlink="http://www.w3.org/1999/xlink" x="0px" y="0px"
	 viewBox="0 0 109.5 185.7" style="enable-background:new 0 0 109.5 185.7;" xml:space="preserve">
<style type="text/css">
	.st0{fill:#FFFFFF;}
	.st1{fill:url(#SVGID_1_);}
	.st2{fill:#146BC1;}
	.st3{fill:url(#SVGID_2_);}
	.st4{font-family:'Oswald-Medium';}
	.st5{font-size:23.4186px;}
</style>
<path class="st0" d="M60.6,55.2c0-4.7,0.2-9.4,0-14.1C60,29.5,50.2,20.4,38.7,20.4c-11.6,0-21.5,9.2-21.9,20.7
	c-0.3,9.3-0.3,18.7,0,28c0.4,11.5,10.3,20.7,21.9,20.7c11.6,0,21.4-9.2,21.9-20.7C60.8,64.4,60.6,59.8,60.6,55.2z"/>
<linearGradient id="SVGID_1_" gradientUnits="userSpaceOnUse" x1="38.6228" y1="89.7401" x2="38.6228" y2="20.3588">
	<stop  offset="1.217023e-03" style="stop-color:#1C8FC7"/>
	<stop  offset="0.2238" style="stop-color:#1B8BC4"/>
	<stop  offset="0.4627" style="stop-color:#187EBB"/>
	<stop  offset="0.6834" style="stop-color:#146BAD"/>
	<stop  offset="0.754" style="stop-color:#1483B7"/>
	<stop  offset="0.8365" style="stop-color:#1497BF"/>
	<stop  offset="0.9187" style="stop-color:#14A3C4"/>
	<stop  offset="1" style="stop-color:#14A7C6"/>
</linearGradient>
<path class="st1" d="M60.6,55.2c0,4.6,0.2,9.2,0,13.8C60,80.6,50.2,89.7,38.7,89.7c-11.6,0-21.5-9.2-21.9-20.7
	c-0.3-9.3-0.3-18.7,0-28c0.4-11.5,10.3-20.7,21.9-20.7c11.6,0,21.4,9.2,21.9,20.7C60.8,45.8,60.6,50.5,60.6,55.2z M58.5,41.6
	c0-10.5-9.7-19.3-18.9-19c0,1.7,0,3.4,0,5.2c-0.7,0-1.2,0-2,0c0-1.8,0-3.6,0-5.4c-11.4,0.5-19,10.6-18.7,19.1c5,0.7,10,1.3,15.1,2
	c-0.1,0.7-0.1,1.2-0.2,1.9c-5-0.6-10-1.2-14.9-1.9c-0.1,0.5-0.1,0.7-0.1,1c0,8.1-0.1,16.2,0.1,24.3c0.3,10.3,9.4,18.7,19.8,18.8
	c10.5,0,19.6-8.4,19.9-18.8c0.2-8.1,0.1-16.1,0.1-24.2c0-0.3-0.1-0.6-0.2-1.1c-4.9,0.6-9.8,1.2-14.8,1.9c-0.1-0.7-0.1-1.3-0.2-1.9
	C48.6,42.9,53.5,42.2,58.5,41.6z"/>
<path class="st2" d="M39.6,48.2c-0.8,0-1.2,0-2,0c0-0.6,0-1.2,0-1.8c0-1.6,0.4-3.4-1.2-4.7C36.1,41.5,36,40.6,36,40
	c0-2.1,0-4.3,0-6.4c0-1.9,1.2-3.1,2.7-3.1c1.5,0.1,2.5,1.2,2.5,3.1c0,1.9,0,3.7,0,5.6c0,1.3,0,2.6-1.2,3.6c-0.3,0.2-0.4,0.9-0.4,1.3
	C39.6,45.5,39.6,46.8,39.6,48.2z M38.4,41.1c0.2,0,0.3,0,0.5,0.1c0.1-0.1,0.2-0.3,0.2-0.4c0.1-2.5,0.1-4.9,0.1-7.4
	c0-0.2-0.4-0.4-0.6-0.6c-0.2,0.3-0.6,0.7-0.6,1c-0.1,2.1,0,4.2,0,6.3C38,40.3,38.2,40.7,38.4,41.1z"/>
<path class="st0" d="M38.4,41.1C38.2,40.7,38,40.3,38,40c0-2.1,0-4.2,0-6.3c0-0.3,0.4-0.7,0.6-1c0.2,0.2,0.6,0.4,0.6,0.6
	c0,2.5,0,4.9-0.1,7.4c0,0.1-0.2,0.3-0.2,0.4C38.7,41.1,38.5,41.1,38.4,41.1z"/>
<linearGradient id="SVGID_2_" gradientUnits="userSpaceOnUse" x1="72.9213" y1="170.8116" x2="72.9213" y2="17.4708">
	<stop  offset="1.217023e-03" style="stop-color:#1C8FC7"/>
	<stop  offset="0.2238" style="stop-color:#1B8BC4"/>
	<stop  offset="0.4627" style="stop-color:#187EBB"/>
	<stop  offset="0.6834" style="stop-color:#146BAD"/>
	<stop  offset="0.754" style="stop-color:#1483B7"/>
	<stop  offset="0.8365" style="stop-color:#1497BF"/>
	<stop  offset="0.9187" style="stop-color:#14A3C4"/>
	<stop  offset="1" style="stop-color:#14A7C6"/>
</linearGradient>
<rect x="72.4" y="17.5" class="st3" width="1.1" height="153.3"/>
<text transform="matrix(6.123235e-17 1 -1 6.123235e-17 80.9009 32.3356)" class="st4 st5">SCROLL - DOWN</text>
</svg>
