<?xml version="1.0" encoding="utf-8"?>
<!-- Generator: Adobe Illustrator 22.0.1, SVG Export Plug-In . SVG Version: 6.00 Build 0)  -->
<svg version="1.1" id="Capa_1" xmlns="http://www.w3.org/2000/svg" xmlns:xlink="http://www.w3.org/1999/xlink" x="0px" y="0px"
	 viewBox="0 0 258.5 81" style="enable-background:new 0 0 258.5 81;" xml:space="preserve">
<style type="text/css">
	.st0{enable-background:new    ;}
	.st1{fill:#E3E2E2;}
	.st2{fill:#141524;}
	.st3{fill:#2B7CBD;}
	.st4{fill:#1C8FC7;}
	.st5{fill:none;}
</style>
<g id="XMLID_1_">
	<g id="XMLID_45_" class="st0">
		<path class="st1" d="M22.1,76.5V16.1H4.5V3.3h48v12.8H34.9v60.4H22.1z"/>
		<path class="st1" d="M64,76.5H51.2V63.1h23.6c1.4,0.4,2.8,0.6,4.2,0.6c4.1,0,7.6-1.5,10.5-4.4c2.9-2.9,4.4-6.4,4.4-10.5
			c0-4.1-1.5-7.6-4.4-10.5c-2.9-2.9-6.4-4.4-10.5-4.4c-1.1,0-2.1,0.1-3.2,0.4H51.2V3.2H64v22C67.9,22.4,72.9,21,79,21
			c3.8,0,7.4,0.7,10.8,2.2c3.3,1.4,6.2,3.4,8.8,5.9c2.6,2.6,4.5,5.5,5.9,8.9c1.5,3.4,2.2,7,2.2,10.8c0,3.8-0.7,7.4-2.2,10.8
			c-1.4,3.3-3.4,6.2-5.9,8.8c-2.6,2.6-5.5,4.5-8.8,5.9c-3.5,1.5-7.1,2.2-10.8,2.2c-6.1,0-11.1-1.4-14.9-4.2V76.5z M64,48.7
			c0,1.4,0.4,3.3,1.1,5.6H51.2V42.9h13.9C64.4,45.2,64,47.2,64,48.7z"/>
		<path class="st1" d="M134.3,76.5c-3.8,0-7.4-0.7-10.8-2.2c-3.3-1.4-6.3-3.4-8.8-5.9c-2.6-2.6-4.5-5.5-6-8.8
			c-1.4-3.5-2.2-7.1-2.2-10.8c0-3.8,0.7-7.4,2.2-10.8c1.4-3.3,3.4-6.3,6-8.9c2.6-2.5,5.5-4.5,8.8-5.9c3.5-1.4,7.1-2.2,10.8-2.2
			c6.4,0,11.5,1.5,15.4,4.6v-4.2h12.9v54.9h-12.9v-4.4C145.8,74.9,140.7,76.5,134.3,76.5z M134.3,33.8c-4.1,0-7.6,1.5-10.5,4.4
			c-2.9,2.9-4.4,6.4-4.4,10.5c0,4.1,1.5,7.6,4.4,10.5c2.9,2.9,6.4,4.4,10.5,4.4c4.1,0,7.6-1.5,10.5-4.4c2.9-2.9,4.4-6.4,4.4-10.5
			c0-4.1-1.5-7.6-4.4-10.5C141.9,35.3,138.4,33.8,134.3,33.8z"/>
		<path class="st1" d="M197.4,21v12.8c-4.8,0-8.6,1.5-11.6,4.4c-2.9,2.9-4.4,6.4-4.4,10.5v27.8h-12.9V21.1h12.9v4.1
			C185.3,22.4,190.6,21,197.4,21z"/>
		<path class="st1" d="M213.8,63.7c1.1,0,2-0.4,2.7-1.2c0.8-0.7,1.1-1.6,1.1-2.7c0-1.1-0.4-2-1.1-2.7c-0.7-0.8-1.6-1.1-2.7-1.1h-1.3
			c-4.6,0-8.5-1.6-11.8-4.9s-4.9-7.2-4.9-11.8v-0.7c0-4.6,1.6-8.6,4.9-11.8c3.3-3.3,7.2-4.9,11.8-4.9h17v12.8h-17
			c-1.1,0-2,0.4-2.7,1.1c-0.8,0.8-1.2,1.7-1.2,2.8v0.7c0,1.1,0.4,2,1.2,2.7c0.8,0.8,1.7,1.2,2.7,1.2h1.3c4.6,0,8.5,1.6,11.8,4.9
			c3.2,3.3,4.9,7.2,4.9,11.8s-1.6,8.5-4.9,11.8c-3.3,3.3-7.2,4.9-11.8,4.9h-17V63.7H213.8z"/>
	</g>
	<g id="XMLID_20_">
		<g id="XMLID_43_">
			<path class="st2" d="M22.1,76.5V16.1H4.5V3.3h48v12.8H34.9v60.4H22.1z"/>
		</g>
		<g id="XMLID_32_">
			<path class="st2" d="M110.6,34.2c1.1-1.8,2.5-3.5,4-5.1c2.6-2.5,5.5-4.5,8.8-5.9c3.5-1.4,7.1-2.2,10.8-2.2
				c6.4,0,11.5,1.5,15.4,4.6v-4.2h12.9v12.8 M162.5,63.1v13.2h-12.9v-4.4c-3.9,3.1-9,4.6-15.4,4.6c-3.8,0-7.4-0.7-10.8-2.2
				c-3.3-1.4-6.3-3.4-8.8-5.9c-1.6-1.6-3-3.4-4.2-5.3 M137.7,34.2c-1.1-0.2-2.2-0.4-3.4-0.4c-1.3,0-2.5,0.1-3.7,0.4 M130,63.1
				c1.3,0.4,2.7,0.6,4.2,0.6s2.9-0.2,4.2-0.6"/>
		</g>
		<g id="XMLID_26_">
			<path class="st2" d="M168.7,34.2V21.1h12.9v4.1c3.8-2.8,9.1-4.2,15.9-4.2v12.8c-1.5,0-2.9,0.1-4.2,0.4 M181.5,63.1v13.4h-12.9
				V63.1"/>
		</g>
		<g id="XMLID_21_">
			<path class="st2" d="M196.3,34.2c0.7-2.9,2.2-5.4,4.4-7.7c3.3-3.3,7.2-4.9,11.8-4.9h17v12.5 M230.2,63.1
				c-0.6,3.2-2.1,6.1-4.6,8.5c-3.3,3.3-7.2,4.9-11.8,4.9h-17V63.7h17c0.8,0,1.4-0.2,2.1-0.6"/>
		</g>
		<g>
			<g>
				<path class="st2" d="M64,3.3H51.2v30.9h24.5c1.1-0.2,2.2-0.4,3.2-0.4c1.3,0,2.5,0.1,3.7,0.4l20-0.1c-1.1-1.8-2.5-3.5-4-5.1
					c-2.6-2.5-5.5-4.5-8.8-5.9C86.3,21.7,82.7,21,79,21c-6.1,0-11.1,1.4-14.9,4.2L64,3.3L64,3.3z"/>
			</g>
			<g>
				<path class="st2" d="M83.2,63.1c-1.3,0.4-2.7,0.6-4.2,0.6c-1.4,0-2.8-0.2-4.2-0.6H51.2v13.4H64v-4.2c3.8,2.8,8.8,4.2,14.9,4.2
					c3.8,0,7.4-0.7,10.8-2.2c3.3-1.4,6.2-3.4,8.8-5.9c1.6-1.6,3-3.4,4.1-5.3L83.2,63.1z"/>
			</g>
		</g>
	</g>
	<g id="XMLID_18_">
		<g id="XMLID_19_">
			<g>
				<path class="st3" d="M77.2,53v-8.6h2.4c0.9,0,1.7,0.3,2.3,1c0.6,0.7,0.9,1.6,0.9,2.6v1.2c0,1.1-0.3,2-0.9,2.6
					c-0.6,0.7-1.3,1-2.3,1h-2.4V53z M78.4,45.3V52h1.2c0.6,0,1.1-0.3,1.4-0.8c0.4-0.5,0.5-1.2,0.5-2V48c0-0.8-0.2-1.5-0.5-2
					c-0.4-0.5-0.8-0.8-1.4-0.8L78.4,45.3L78.4,45.3z"/>
			</g>
			<g>
				<path class="st3" d="M93.1,49h-2.9v3.1h3.4V53H89v-8.6h4.6v0.9h-3.4v2.8h2.9V49z"/>
			</g>
			<g>
				<path class="st3" d="M103.5,50.8c0-0.4-0.1-0.7-0.3-1c-0.2-0.3-0.6-0.5-1.2-0.7c-0.8-0.3-1.4-0.6-1.9-1
					c-0.4-0.4-0.6-0.9-0.6-1.6c0-0.7,0.2-1.2,0.7-1.7c0.5-0.4,1.1-0.7,1.8-0.7c0.8,0,1.4,0.2,1.9,0.7s0.7,1.1,0.7,1.8l0,0h-1.1
					c0-0.5-0.1-0.9-0.4-1.2s-0.6-0.5-1.1-0.5c-0.4,0-0.8,0.1-1,0.4c-0.2,0.3-0.4,0.6-0.4,1s0.1,0.7,0.4,0.9s0.7,0.5,1.2,0.7
					c0.8,0.3,1.4,0.6,1.8,1s0.6,0.9,0.6,1.6c0,0.7-0.2,1.3-0.7,1.7s-1.1,0.6-1.9,0.6s-1.4-0.2-2-0.7s-0.8-1.1-0.8-1.9l0,0h1.2
					c0,0.6,0.2,1,0.5,1.3s0.7,0.4,1.1,0.4s0.8-0.1,1-0.4C103.4,51.6,103.5,51.2,103.5,50.8z"/>
			</g>
			<g>
				<path class="st3" d="M114.7,50.8h-2.6l-0.6,2.2h-1.2l2.6-8.6h1.2l2.5,8.6h-1.2L114.7,50.8z M112.4,49.9h2l-1-3.5l0,0L112.4,49.9
					z"/>
			</g>
			<g>
				<path class="st3" d="M123.5,49.3V53h-1.2v-8.6h2.5c0.8,0,1.5,0.2,1.9,0.6c0.4,0.4,0.7,1,0.7,1.8c0,0.4-0.1,0.8-0.3,1.2
					c-0.2,0.3-0.5,0.6-0.9,0.8c0.4,0.1,0.8,0.4,0.9,0.7c0.2,0.3,0.3,0.8,0.3,1.3v0.7c0,0.3,0,0.5,0.1,0.7s0.1,0.4,0.3,0.5V53h-1.2
					c-0.1-0.1-0.2-0.3-0.3-0.6s-0.1-0.5-0.1-0.8v-0.7c0-0.5-0.1-0.9-0.3-1.1c-0.2-0.3-0.5-0.4-0.9-0.4h-1.5V49.3z M123.5,48.4h1.3
					c0.5,0,0.9-0.1,1.1-0.4s0.4-0.6,0.4-1.1s-0.1-0.9-0.3-1.1c-0.2-0.3-0.6-0.4-1-0.4h-1.3v3H123.5z"/>
			</g>
			<g>
				<path class="st3" d="M135,49.3V53h-1.2v-8.6h2.5c0.8,0,1.5,0.2,1.9,0.6c0.4,0.4,0.7,1,0.7,1.8c0,0.4-0.1,0.8-0.3,1.2
					c-0.2,0.3-0.5,0.6-0.9,0.8c0.4,0.1,0.8,0.4,0.9,0.7c0.2,0.3,0.3,0.8,0.3,1.3v0.7c0,0.3,0,0.5,0.1,0.7s0.1,0.4,0.3,0.5V53h-1.2
					c-0.1-0.1-0.2-0.3-0.3-0.6s-0.1-0.5-0.1-0.8v-0.7c0-0.5-0.1-0.9-0.3-1.1c-0.2-0.3-0.5-0.4-0.9-0.4H135V49.3z M135,48.4h1.3
					c0.5,0,0.9-0.1,1.1-0.4s0.4-0.6,0.4-1.1s-0.1-0.9-0.3-1.1c-0.2-0.3-0.6-0.4-1-0.4H135V48.4z"/>
			</g>
			<g>
				<path class="st3" d="M151.1,49.9c0,1-0.3,1.8-0.8,2.4c-0.5,0.6-1.3,0.8-2.2,0.8s-1.6-0.3-2.2-0.8s-0.8-1.4-0.8-2.4v-2.4
					c0-1,0.3-1.8,0.8-2.4s1.3-0.9,2.2-0.9s1.7,0.3,2.2,0.9c0.6,0.6,0.8,1.4,0.8,2.4V49.9z M149.9,47.5c0-0.7-0.2-1.3-0.5-1.7
					s-0.8-0.6-1.4-0.6c-0.6,0-1,0.2-1.3,0.6c-0.3,0.4-0.5,1-0.5,1.7v2.4c0,0.8,0.2,1.3,0.5,1.7s0.8,0.6,1.3,0.6c0.6,0,1-0.2,1.4-0.6
					c0.3-0.4,0.5-1,0.5-1.7V47.5z"/>
			</g>
			<g>
				<path class="st3" d="M158.5,52.1h3.5V53h-4.7v-8.6h1.2V52.1z"/>
			</g>
			<g>
				<path class="st3" d="M169.1,52.1h3.5V53h-4.7v-8.6h1.2V52.1z"/>
			</g>
			<g>
				<path class="st3" d="M183.9,49.9c0,1-0.3,1.8-0.8,2.4c-0.5,0.6-1.3,0.8-2.2,0.8s-1.6-0.3-2.2-0.8s-0.8-1.4-0.8-2.4v-2.4
					c0-1,0.3-1.8,0.8-2.4s1.3-0.9,2.2-0.9s1.7,0.3,2.2,0.9c0.6,0.6,0.8,1.4,0.8,2.4V49.9z M182.8,47.5c0-0.7-0.2-1.3-0.5-1.7
					s-0.8-0.6-1.4-0.6c-0.6,0-1,0.2-1.3,0.6c-0.3,0.4-0.5,1-0.5,1.7v2.4c0,0.8,0.2,1.3,0.5,1.7s0.8,0.6,1.3,0.6c0.6,0,1-0.2,1.4-0.6
					c0.3-0.4,0.5-1,0.5-1.7V47.5z"/>
			</g>
			<g>
				<path class="st3" d="M195.9,50.5L195.9,50.5l1.1-6.1h1.3l-1.8,8.6h-1.1l-1.5-6.1l0,0l-1.5,6.1h-1.1l-1.8-8.6h1.3l1.1,6.1l0,0
					l1.4-6.1h1L195.9,50.5z"/>
			</g>
			<g>
				<path class="st3" d="M208.2,49h-2.9v3.1h3.4V53h-4.6v-8.6h4.6v0.9h-3.4v2.8h2.9V49z"/>
			</g>
			<g>
				<path class="st3" d="M214.7,53v-8.6h2.4c0.8,0,1.5,0.2,1.9,0.6c0.5,0.4,0.7,1,0.7,1.7c0,0.4-0.1,0.8-0.3,1.1s-0.5,0.5-0.8,0.7
					c0.5,0.1,0.9,0.3,1.2,0.7s0.4,0.8,0.4,1.4c0,0.8-0.2,1.4-0.7,1.8c-0.5,0.4-1.1,0.6-1.9,0.6H214.7z M215.9,48.1h1.4
					c0.4,0,0.7-0.1,0.9-0.4c0.2-0.2,0.3-0.6,0.3-1c0-0.5-0.1-0.8-0.4-1.1s-0.6-0.4-1.1-0.4h-1.2v2.9H215.9z M215.9,49v3.1h1.7
					c0.4,0,0.8-0.1,1-0.4c0.2-0.3,0.4-0.6,0.4-1.1s-0.1-0.8-0.3-1.1s-0.6-0.4-1-0.4h-0.1L215.9,49L215.9,49z"/>
			</g>
		</g>
	</g>
	<g id="XMLID_10_">
		<path class="st4" d="M53.5,42h20.9c0,0-6.3,4.6-7.6,6.6c-1,1.2,6.2,6.6,6.2,6.6H53.5V42z"/>
	</g>
	<g>
		<path class="st4" d="M221.6,55.6c0,0,10.3-8.1,9.9-8.9c-0.4-0.9,1.3,0.7,1.3,1.5c0.1,0.8-7,6.5-8.5,7.4"/>
	</g>
	<g id="XMLID_6_">
		<path class="st4" d="M248.7,55.3h-21.4c0,0,6.3-4.6,7.6-6.6c1.1-1.3-6.7-7-6.2-6.6h20L248.7,55.3L248.7,55.3z"/>
	</g>
	<g>
		<g id="XMLID_5_">
			<path class="st2" d="M51.2,42h20.9c0,0-6.3,4.6-7.6,6.6c-1,1.2,6.2,6.6,6.2,6.6H51.2V42z"/>
		</g>
		<g id="XMLID_4_">
			<path class="st2" d="M250.4,55.3h-20.9c0,0,6.3-4.6,7.6-6.6c1.1-1.3-6.7-7-6.2-6.6h19.5L250.4,55.3L250.4,55.3z"/>
		</g>
	</g>
	<g>
		<g id="XMLID_3_">
			<path class="st5" d="M51.2,42h20.9c0,0-6.3,4.6-7.6,6.6c-1,1.2,6.2,6.6,6.2,6.6H51.2V42z"/>
		</g>
		<g id="XMLID_2_">
			<path class="st5" d="M250.4,55.3h-20.9c0,0,6.3-4.6,7.6-6.6c1.1-1.3-6.7-7-6.2-6.6h19.5L250.4,55.3L250.4,55.3z"/>
		</g>
	</g>
	<g class="st0">
	</g>
</g>
</svg>
