<?xml version="1.0" encoding="utf-8"?>
<!-- Generator: Adobe Illustrator 22.0.1, SVG Export Plug-In . SVG Version: 6.00 Build 0)  -->
<svg version="1.1" id="Capa_1" xmlns="http://www.w3.org/2000/svg" xmlns:xlink="http://www.w3.org/1999/xlink" x="0px" y="0px"
	 viewBox="0 0 487.6 1080" style="enable-background:new 0 0 487.6 1080;" xml:space="preserve">
<style type="text/css">
	.st0{opacity:0.2;fill:#23BDF0;}
	.st1{opacity:0.2;fill:#23BDF0;enable-background:new    ;}
	.st2{fill:#40BDFF;}
</style>
<path class="st0" d="M202.2,3437.2c11.5-22.7,14.8-49.6,7.4-76c-6.8-24.1-101.6-141.8-173.4-180c-36.4-19.4-170.6-69.5-249.8-22.3
	c-93.2,55.5-206.1,295-195.8,331.1c8.1,28.7,29.8,49.9,56.1,58.8c127.7,43.4,239.6,124,321.1,231.4c25.2,34.2,69.8,51,113.1,38.8
	c50.8-14.4,82.1-63.9,75.3-114.7C144.3,3612.5,160.4,3519.6,202.2,3437.2L202.2,3437.2z"/>
<path class="st1" d="M32.8,673.4c-14,32.3-16.2,69.8-3.7,105.5c11.4,32.7,152.4,187,254.7,233.8c32.3,14.8,118.1,42.9,203.7,44.5V6
	c-135,98-260.9,109.6-319.6,130.3C99.3,160.4,60.2,231.4,73.8,301C97.7,426.4,83.4,556.3,32.8,673.4L32.8,673.4z"/>
<path class="st2" d="M24.1,688.6c-14.3,32.9-16.5,71-3.8,107.6c11.8,33.2,155.3,190.7,259.7,238.2c32.9,15.1,120.5,43.7,207.7,45.3
	v-22.4c-82.8-4-163.2-30.5-194.5-44.8C188.7,965,45.2,807.6,33.5,774.3c-12.9-36.5-10.5-74.7,3.8-107.6l0,0
	C88.9,547.2,103.4,415,79.1,287.2c-6.4-32.4,2.7-66.4,16.5-94.7C72.1,225.1,57.8,268,65.9,309.1C90.2,437.1,75.6,569.1,24.1,688.6
	L24.1,688.6z"/>
</svg>
