<?xml version="1.0" encoding="utf-8"?>
<!-- Generator: Adobe Illustrator 22.0.1, SVG Export Plug-In . SVG Version: 6.00 Build 0)  -->
<svg version="1.1" id="Capa_1" xmlns="http://www.w3.org/2000/svg" xmlns:xlink="http://www.w3.org/1999/xlink" x="0px" y="0px"
	 viewBox="0 0 532 209.5" style="enable-background:new 0 0 532 209.5;" xml:space="preserve">
<style type="text/css">
	.st0{fill:#23BDF0;}
	.st1{fill:#FFFFFF;}
</style>
<g>
	<g>
		<path class="st0" d="M0,209h506c-91.1,0-169.4-6.1-198.8-43.9c-29.4-37.8-7.5-91.7-2.7-106.3c1.3-3.9,2-8,1.8-12.3
			c-1-22.5-25.2-40.8-55-41.5c-12.7-0.3-24.5,2.6-34.1,7.6l0,0C151.6,47,64.6,46.3,0,11.3V209z"/>
	</g>
	<path class="st1" d="M0,209h529.8C437,209,343,203,313,166s-7.6-89.8-2.8-104.1c1.4-3.8,2-7.9,1.8-12c-1-22.1-25.7-40-56-40.7
		c-12.9-0.3-25,2.5-34.8,7.5l0,0C154.4,50.3,65.8,49.7,0,15.4V209z"/>
</g>
</svg>
