<?xml version="1.0" encoding="utf-8"?>
<!-- Generator: Adobe Illustrator 22.0.1, SVG Export Plug-In . SVG Version: 6.00 Build 0)  -->
<svg version="1.1" id="Capa_1" xmlns="http://www.w3.org/2000/svg" xmlns:xlink="http://www.w3.org/1999/xlink" x="0px" y="0px"
	 viewBox="0 0 532 417.5" style="enable-background:new 0 0 532 417.5;" xml:space="preserve">
<style type="text/css">
	.st0{fill:#23BDF0;}
	.st1{fill:#FFFFFF;}
</style>
<g>
	<g>
		<path class="st0" d="M530.8-0.2H33.4c89.6,0,166.5,8.3,195.4,60.1s7.4,125.5,2.7,145.5c-1.3,5.3-2,10.9-1.8,16.8
			c1,30.8,24.8,55.8,54.1,56.8c12.5,0.4,24.1-3.6,33.5-10.4l0,0c64.5-47.1,150-46.1,213.5,1.8V-0.2z"/>
	</g>
	<path class="st1" d="M530.8-0.2H10c91.2,0,183.6,8.2,213.1,58.8s7.5,122.9,2.8,142.5c-1.4,5.2-2,10.8-1.8,16.4
		c1,30.2,25.3,54.7,55,55.7c12.7,0.4,24.6-3.4,34.2-10.3l0,0c65.7-46,152.8-45.2,217.4,1.8V-0.2z"/>
</g>
</svg>
