<?xml version="1.0" encoding="utf-8"?>
<!-- Generator: Adobe Illustrator 22.0.1, SVG Export Plug-In . SVG Version: 6.00 Build 0)  -->
<svg version="1.1" id="Capa_1" xmlns="http://www.w3.org/2000/svg" xmlns:xlink="http://www.w3.org/1999/xlink" x="0px" y="0px"
	 viewBox="0 0 363.1 581.8" style="enable-background:new 0 0 363.1 581.8;" xml:space="preserve">
<style type="text/css">
	.st0{fill:#E5A3A3;}
	.st1{fill:#F9F9F9;}
	.st2{fill:#FCFCFC;}
	.st3{fill:#F7F8F9;}
	.st4{fill:#FFFFFF;}
</style>
<g>
	<g>
		<g id="XMLID_14_">
			<g id="XMLID_47_">
				<g id="XMLID_54_">
					<path id="XMLID_210_" class="st0" d="M281.8,234c11.8-12.2,4.9-28.4-8-36.5c-0.1-11.2-6.5-21.2-16.1-26.5
						c0.4-14.8-13.6-31.1-29.3-24.8c-7.5,3-11.5,10.7-14.8,17.5c-4.5,9.1-8.6,18.5-11.5,28.2c-0.4,1.3-0.8,2.7-1.1,4
						c-9.8,19.3-19,38.9-27.5,58.8c-7.5,17.5-18,37.8-10.7,57.1c5.9,15.5,22.4,22.6,38,17.2c4.4-1.5,8.1-3.9,11.3-6.8
						c8.3,3.9,18,3.4,25.6-2.3c3-2.3,5.7-5.5,7.8-9.2c9.8-2,19.5-11.4,19.9-21.7c10.9-6.1,12.9-19.1,8.5-29.8
						C280.9,252.9,284.1,243.4,281.8,234z M249.3,299.7c0.3-2,0.4-4.1,0.1-6c-0.7-5.5-9.4-5.5-8.7,0c1.7,13.2-10.7,25.2-22.9,21.5
						c4.7-7.5,6.8-16.7,5.9-25.8c-0.3-3.2-1.1-6.7-2.3-10c2.7-0.7,5.1-2,7.1-3.8c7.4,7,17.2,15.8,27.6,15.9
						C255.1,294.7,252.4,297.6,249.3,299.7z M266.2,254.1c-2,1.3-2.7,3.8-1.6,5.9c3.5,6.3,4,16.4-2.2,20.7c-2.2-1.1-5.2-0.2-6.2,2.1
						c-8.3,0.2-17.5-9.6-22.9-14.6c0.6-1.6,0.9-3.3,1-5c0.4-5.6-8.3-5.6-8.7,0c-0.3,4.7-3.9,7.7-8.3,8c-6.3-10.1-16.8-16.7-29.1-9.8
						c-4.9,2.7-0.5,10.2,4.4,7.5c10-5.5,18.2,5.1,20.8,13.6c2.7,8.5,2.4,18.2-1.8,26.2c-7.8,15.1-31.7,19.5-40.1,2.4
						c-8.8-17.9,4-40,11-56.3c5.2-12,10.7-23.8,16.3-35.5c1.1,9,4.6,17.6,11.6,24.4c7.3,7,16.8,12.5,26.1,16.4
						c5.3,2.2,21.6,8.7,25.3,1.3c1-2,0.6-4.8-1.6-5.9c-0.1,0-0.2-0.1-0.3-0.1c-1.9-1-3.6-0.5-4.9,0.6c0-0.3-0.4-0.3-1.1-0.2
						c-1.4,0-2.8-0.2-4.2-0.5c-2.1-0.4-4.3-1-6.3-1.7c-3.8-1.3-7.5-3.1-11-5.1c-6.7-3.7-13.7-7.8-18.6-13.8
						c-8.3-10.3-8-23.5-4.9-35.8c0.4-0.7,0.7-1.4,1.1-2.1c0.5-1.1,0.6-2.1,0.4-3c0.8-2.8,1.8-5.5,2.8-8
						c3.9-10.2,13.3-40.9,29.1-29.2c4.9,3.6,6.8,8.7,6.6,13.6c-1,1.2-1.3,3-0.8,4.5c-2,6.3-7.5,11.6-14.7,12.3
						c0.2-3.3-0.9-6.6-3.4-8.9c-4.1-3.8-10.2,2.3-6.1,6.1c3.6,3.4-3.5,7.8-5.8,9.3c-4.7,3-0.3,10.5,4.4,7.5c2.5-1.6,5-3.3,7-5.5
						c11.2,0.7,21.9-5.4,26.1-15.5c6.4,4.5,9.8,12.1,9.3,20.1c-0.1,1.4,0.9,3.1,2.1,3.7c10.6,5.6,17.2,17.2,6.3,26.2
						c-4.2,3.5-9.6,6.6-15.1,4.9c-4.3-1.3-7.7-4.7-10.8-7.9c2.4-2.7,4.3-6,4.9-9.5c0.7-4.2-0.8-6.7-2.4-9.9c0.1-4.8-7.4-6.5-8.5-1.4
						c-0.6,2.8,0.2,3.8,1.4,6.2c1.7,3.2,0.8,5.8-1.6,8.6c-3.9,4.5-10.1,6.5-15.9,5.5c-5.5-0.9-7.8,7.4-2.3,8.4
						c6.1,1.1,12.2,0.2,17.5-2.6c5.2,5.4,11.2,10.8,18.9,11.7c5.1,0.6,10-1,14.4-3.6C273.8,245.8,271.2,250.9,266.2,254.1z"/>
					<path id="XMLID_55_" class="st1" d="M95.9,180.7c-10.9,3.9-19.3,14-16.7,26.2c-7.4,7.2-8,20.7-3,29.3c-1.4,4-2,8.2-1.7,12
						c0.7,9.5,6.8,17,15.2,20.7c-0.1,4.3,0.7,8.7,2.4,13c6.3,15.2,22.6,22.9,38.1,17c19.3-7.3,27.5-28.7,35.6-45.9
						c9.2-19.6,17.7-39.5,25.7-59.6c0.8-1.2,1.5-2.3,2.3-3.5c5.3-8.6,9.6-17.9,13.4-27.3c2.9-7.1,6-15.1,3.2-22.7
						c-5.8-16-27.2-15.7-38-5.5c-10.4-3.7-22-1.8-30.5,5.5c-14.6-4.3-31.3,1.2-32.6,18.2C100.8,162.5,95.8,171.3,95.9,180.7z
						 M83.5,215.3c6.9,7.7,20.1,9.1,30.2,10.1c0,2.7,0.6,5.4,1.9,7.9c-3.3,1.3-6.4,3-9,4.9c-7.4,5.4-12.9,13.1-15.3,21.6
						C80.2,253,81,235.8,92,228.4c4.6-3.1-1.2-9.6-5.8-6.5c-1.6,1.1-3.1,2.5-4.4,4.1C81.3,222.3,81.7,218.3,83.5,215.3z M110,168.1
						c1,5,3.1,9.8,6.9,13.2c5.8,5.1,13.8,6.1,21.3,6.4c1.4,5.8,4.9,10.9,9.7,14.8c4.4,3.5,9.1-3.8,4.7-7.3
						c-4.6-3.7-7.2-9.7-6.4-15.5c0.5-3.6,1.8-6,5.3-6.9c2.6-0.6,3.9-0.8,5.6-3.1c3.1-4.2-3.1-8.6-6.7-5.4c-3.5,0.9-6.4,1.4-9,4.7
						c-2.3,2.8-3.5,6.4-3.9,10c-4.5-0.1-9.3-0.5-13.1-2.8c-5-3-6.2-9.1-6.4-14.6c-0.5-14.2,12.5-17,23.7-12.7
						c1.3,0.5,3.2,0.2,4.2-0.9c5.6-5.7,13.6-8.2,21.2-6.4c-4.7,9.9-2.2,21.9,5.8,29.8c-0.3,2.9,0.1,5.9,0.6,8.9
						c0.9,5.5,9.4,3.8,8.5-1.7c-0.4-2.7-1.9-11,3.1-10.5c5.6,0.5,6.1-8.1,0.5-8.7c-3.4-0.3-6.6,1.1-8.9,3.4
						c-4.3-5.8-3.9-13.4-0.5-19.1c1.5-0.7,2.6-2.1,2.8-3.6c3.6-3.5,8.6-5.4,14.6-4.1c19.2,4.1,2.5,31.4-2.5,41.1
						c-1.3,2.4-2.7,4.9-4.2,7.4c-0.9,0.4-1.6,1.2-2,2.3c-0.3,0.7-0.6,1.5-0.9,2.2c-7.2,10.4-16.9,19.4-30.1,20.1
						c-7.7,0.4-15.5-2.2-22.6-4.7c-3.8-1.4-7.6-2.9-11.1-4.9c-1.9-1.1-3.7-2.3-5.4-3.6c-1.1-0.9-2.2-1.8-3.1-2.9
						c-0.4-0.6-0.7-0.9-0.9-0.7c0-1.6-0.9-3.3-2.8-4c-0.1,0-0.2-0.1-0.3-0.1c-2.3-0.9-4.6,0.7-5.5,2.8c-3.1,7.7,12.6,15.6,17.7,18.1
						c9.1,4.3,19.5,7.9,29.6,8.6c9.7,0.7,18.5-2.3,25.9-7.5c-5,12-10.3,24-15.8,35.8c-7.5,16.1-15.6,40.4-34.8,45.6
						c-18.4,5-30.9-15.7-24.8-31.6c3.2-8.4,10.3-15.1,18.4-18.8c8.1-3.7,21.5-4.6,24,6.6c1.2,5.5,9.7,3.8,8.5-1.7
						c-3.1-13.8-15-17.2-26.7-15.3c-2.7-3.5-2.8-8.1,0.5-11.5c3.9-3.9-1.8-10.5-5.8-6.5c-1.2,1.2-2.3,2.6-3.1,4.1
						c-7.3-0.7-20.8-1.1-26.2-7.4c1-2.2-0.3-5.1-2.6-6c-0.8-7.5,7-13.8,14.1-15.4c2.4-0.5,3.8-2.8,3.4-5.1
						C103.8,177.2,105.9,171.8,110,168.1z"/>
				</g>
				<path id="XMLID_53_" class="st2" d="M320.2,261.6c-5.7,25-18.8,48.3-38,67.6c-8.8,8.8-18.8,16.8-29.9,23.8
					c-0.6,0.4-1.3,0.8-2,1.2c-7,4.4-17.6,11-19.2,18.9c-0.1,0.7-0.2,1.4-0.2,2c0,1.9,0.5,3.8,1.7,5.7h-9.1c-0.5-1.9-0.7-3.8-0.7-5.7
					c0.3-7.7,5.2-15.4,11.7-20.6c3.4-2.7,7.2-5,10.8-7.2c2-1.2,4.1-2.5,6.1-3.8c5.9-3.9,11.5-8.2,16.6-12.6
					c22.7-19.7,37.9-44.5,44.1-71.5c11.1-48.7-7-101.1-46.1-133.3c-12-9.9-25.6-17.7-40.4-23c-29.1-10.6-61.1-10.6-90.2,0
					c-14.8,5.4-28.4,13.1-40.4,23c-39.1,32.2-57.2,84.5-46.1,133.3c6.2,27,21.4,51.8,44.1,71.5c5.1,4.5,10.7,8.7,16.6,12.6
					c2,1.3,4.1,2.6,6.1,3.8c3.6,2.2,7.4,4.5,10.8,7.2c6.6,5.2,11.5,12.9,11.7,20.6c0.1,1.9-0.1,3.8-0.7,5.7h-9.1
					c1.1-1.9,1.7-3.8,1.7-5.7c0-0.7-0.1-1.4-0.2-2c-1.6-8-12.2-14.6-19.2-18.9c-0.7-0.4-1.4-0.9-2-1.2c-11.1-7-21.1-15-29.9-23.8
					c-19.2-19.2-32.3-42.6-38-67.6c-5.7-24.9-4.5-51,3.5-75.5c7.9-24.5,22.3-46.3,41.5-63.1c24.9-21.8,57.1-34.9,90.5-36.7V86l0.7,0
					c1.2,0,2.4,0,3.6,0.1c1.1,0,2.3-0.1,3.5-0.1l0.7,0v0.2c33.4,1.8,65.6,14.9,90.5,36.7c19.2,16.8,33.5,38.6,41.5,63.1
					C324.6,210.6,325.8,236.7,320.2,261.6z"/>
				<path id="XMLID_48_" class="st3" d="M239.5,377.2c-0.2-0.8-0.6-1.6-1.2-2c-0.8-0.8-1.8-1-2.8-0.7H125.4c-1-0.3-2.1-0.1-2.8,0.7
					c-0.6,0.5-1,1.2-1.2,2c-1.7,4-2.5,8-2.5,11.9c0.1,5.8,1.1,9.7,3,11.6c0.3,0.4,0.6,0.8,1,1c0.8,0.5,1.6,1,2.4,1.5
					c-0.3,1.7-0.5,3.3-0.5,5c0.1,5.2,1,8.8,2.8,10.5c0.2,0.4,0.5,0.7,0.9,1c0.7,0.4,1.3,0.8,1.9,1.2c-0.2,1.1-0.2,2.2-0.2,3.4
					c0.1,4.7,0.9,7.9,2.5,9.5c0.2,0.3,0.5,0.6,0.9,0.9c6.6,4.4,14.3,5.5,22.2,6.2c6.6,0.6,13.5,1,21.1,1.1l0.2,0c0.2,0,0.4,0,0.5,0
					c0.4,0,0.9,0,1.3,0l0.6,0l2.2,0c0.2,0,0.4,0,0.6,0c0.2,0,0.4,0,0.6,0c0.2,0,0.4,0,0.6,0l0.2,0c7.6-0.1,14.5-0.4,21.1-1.1
					c7.9-0.7,15.6-1.8,22.2-6.2c0.4-0.2,0.6-0.5,0.8-0.9c1.6-1.6,2.4-4.8,2.5-9.5c0-1.2-0.1-2.3-0.2-3.4c0.7-0.4,1.3-0.8,2-1.2
					c0.4-0.3,0.7-0.6,0.9-1c1.8-1.8,2.7-5.3,2.8-10.5c0-1.6-0.1-3.3-0.5-5c0.8-0.5,1.6-1,2.4-1.5c0.4-0.3,0.8-0.6,1-1
					c1.9-2,3-5.9,3-11.6C242,385.1,241.1,381.1,239.5,377.2z M224.9,423.7c0,2.4-0.2,4.3-0.6,5.3c-0.4,0.2-0.7,0.6-0.9,1
					c-6.1,3.7-13.3,4.4-20.3,4.9c-6.9,0.6-14.3,0.9-22.7,0.9c-8.3,0-15.7-0.3-22.7-0.9c-6.9-0.6-14.1-1.2-20.3-4.9
					c-0.3-0.4-0.6-0.8-0.9-1c-0.4-1-0.6-2.9-0.6-5.3c0-0.1,0-0.3,0-0.4c5.5,2,11.3,2.7,17.2,3.2c7.1,0.7,14.7,1.1,22.9,1.2l0.7,0
					c0.2,0,0.4,0,0.6,0l6,0c0.2,0,0.4,0,0.5,0l0.7,0v0c8.3-0.1,15.8-0.5,22.9-1.2c5.9-0.6,11.7-1.2,17.2-3.2
					C224.9,423.5,224.9,423.6,224.9,423.7z M229.8,407.6c0,2.7-0.2,4.8-0.7,5.9c-0.4,0.3-0.8,0.7-1,1.1c-0.1,0.1-0.2,0.1-0.4,0.2
					c-1.3,0.8-2.7,1.4-4.2,2l0,0c-5.7,2.2-11.9,2.7-17.9,3.2c-7.8,0.7-16,1-25.2,1c-9.1,0-17.4-0.4-25.2-1c-6-0.5-12.2-1-17.9-3.2
					c-1.6-0.6-2.9-1.3-4.3-2c-0.1-0.1-0.2-0.1-0.4-0.2c-0.3-0.5-0.6-0.8-1-1.1c-0.5-1.1-0.7-3.2-0.7-5.9c0-0.6,0.1-1.2,0.1-1.8
					c6.1,2.2,12.5,2.9,19.1,3.6c7.9,0.7,16.3,1.2,25.5,1.3l8,0l1.4,0v0c9.2-0.1,17.6-0.6,25.5-1.3c0.2,0,0.5,0,0.7-0.1
					c6.3-0.6,12.5-1.4,18.4-3.5C229.8,406.4,229.8,407,229.8,407.6z M232.6,396.8c-0.6,0.3-1.2,0.7-1.9,1c-0.2,0.1-0.4,0.2-0.7,0.3
					c-0.4,0.2-0.9,0.4-1.3,0.6c-0.3,0.1-0.6,0.2-0.9,0.3c-0.4,0.2-0.8,0.3-1.2,0.5c-0.3,0.1-0.7,0.2-1,0.3c-0.4,0.1-0.8,0.3-1.2,0.4
					l0,0c-5.2,1.4-10.7,1.9-16,2.3l-0.1,0c-8.6,0.7-17.7,1.1-27.9,1.1c-10.2,0-19.3-0.4-27.9-1.1l-0.1,0c-0.2,0-0.3,0-0.5,0
					c-5.2-0.4-10.5-0.9-15.5-2.3c0,0,0,0,0,0l0,0c-0.4-0.1-0.8-0.3-1.3-0.4c-0.3-0.1-0.7-0.2-1-0.3c-0.4-0.1-0.8-0.3-1.2-0.5
					c-0.3-0.1-0.6-0.2-0.8-0.3c-0.4-0.2-0.8-0.3-1.1-0.5c-0.3-0.1-0.6-0.2-0.8-0.4c-0.6-0.3-1.1-0.6-1.6-0.9c-0.1,0-0.2-0.1-0.2-0.1
					l0,0c-0.3-0.1-0.5-0.3-0.8-0.5c-0.3-0.5-0.7-1-1.2-1.2c-0.5-1.2-0.8-3.6-0.8-6.6c0-2.3,0.5-4.6,1.3-6.8h107.3
					c0.8,2.2,1.2,4.5,1.3,6.8c0,3-0.2,5.4-0.8,6.6c-0.5,0.3-0.9,0.7-1.2,1.2C233.1,396.5,232.9,396.6,232.6,396.8z"/>
			</g>
			<g id="XMLID_22_">
				<g>
					<path id="XMLID_57_" class="st1" d="M178.6,8.6v57.9c0,3,4.7,3,4.7,0V8.6C183.2,5.6,178.6,5.6,178.6,8.6z"/>
					<path id="XMLID_56_" class="st1" d="M295.6,30.4l-35.9,45.4c-1.9,2.4,1.8,5.3,3.7,2.9l35.9-45.4
						C301.1,31,297.5,28.1,295.6,30.4z"/>
					<path id="XMLID_44_" class="st1" d="M353.2,118l-56.3,13.4c-2.9,0.7-1.8,5.2,1.1,4.5l56.3-13.4
						C357.2,121.8,356.1,117.3,353.2,118z"/>
					<path id="XMLID_43_" class="st1" d="M65.2,30.4l35.9,45.4c1.9,2.4-1.8,5.3-3.7,2.9L61.6,33.3C59.7,31,63.4,28.1,65.2,30.4z"/>
					<path id="XMLID_42_" class="st1" d="M7.7,118L64,131.4c2.9,0.7,1.8,5.2-1.1,4.5L6.6,122.5C3.7,121.8,4.7,117.3,7.7,118z"/>
				</g>
			</g>
		</g>
		<rect x="176.9" y="438.8" class="st4" width="5" height="136.5"/>
	</g>
</g>
</svg>
