<?xml version="1.0" encoding="utf-8"?>
<!-- Generator: Adobe Illustrator 22.0.1, SVG Export Plug-In . SVG Version: 6.00 Build 0)  -->
<svg version="1.1" id="Capa_1" xmlns="http://www.w3.org/2000/svg" xmlns:xlink="http://www.w3.org/1999/xlink" x="0px" y="0px"
	 viewBox="0 0 372.9 128.4" style="enable-background:new 0 0 372.9 128.4;" xml:space="preserve">
<style type="text/css">
	.st0{enable-background:new    ;}
	.st1{fill:#23A1FF;}
	.st2{fill:#171717;}
	.st3{fill:none;stroke:#23A1FF;stroke-width:2;stroke-miterlimit:10;}
</style>
<g class="st0">
	<path class="st1" d="M80.7,114.9c-5.1-5.9-8-14.6-8.4-26.2l18-3.5c0.3,7.3,1.4,12.8,3.5,16.6c2,3.8,5.2,5.7,9.6,5.7
		c3.2,0,5.6-1,7.2-2.9c1.6-1.9,2.3-4.6,2.3-7.9c0-4.5-1-8.4-3-11.5c-2-3.2-5.2-6.6-9.6-10.4L85.7,62.2c-4.4-3.8-7.8-7.8-10-12.2
		c-2.2-4.3-3.3-9.5-3.3-15.6c0-9,2.6-15.9,7.9-20.9c5.2-5,12.5-7.4,21.7-7.4c9.9,0,17,2.8,21.3,8.4c4.3,5.6,6.8,13.2,7.4,22.7
		l-18,3.1c-0.3-6.2-1.2-10.9-2.6-14.1c-1.5-3.2-4.3-4.7-8.6-4.7c-3,0-5.4,1-7.1,3c-1.7,2-2.5,4.6-2.5,7.7c0,3.7,0.7,6.8,2.2,9.3
		c1.5,2.5,3.8,5.2,7.2,8l14.3,12.6c5.4,4.6,9.6,9.6,12.6,14.9c3,5.3,4.5,11.4,4.5,18.4c0,5.5-1.2,10.3-3.6,14.6
		c-2.4,4.2-5.8,7.6-10.1,10c-4.3,2.4-9.3,3.6-15,3.6C93.6,123.7,85.8,120.8,80.7,114.9z"/>
</g>
<g class="st0">
	<path class="st2" d="M144,7.3h19.1v66l21-33h21.1l-20.5,32.9l20.1,49h-20.2l-14.9-40.4l-6.5,9.1V122H144V7.3z"/>
	<path class="st2" d="M213.2,11.3h19.3v16h-19.3V11.3z M213.2,40.3h19.3v81.8h-19.3V40.3z"/>
	<path class="st2" d="M249.1,7.5h19.1v114.7h-19.1V7.5z"/>
	<path class="st2" d="M284.7,7.5h19.1v114.7h-19.1V7.5z"/>
	<path class="st2" d="M324.4,117.9c-4.4-3.7-7.6-9.1-9.5-16.1l14.3-5.5c2.2,9.2,6.1,13.7,11.9,13.7c2.2,0,3.8-0.6,5-1.7
		c1.2-1.1,1.8-2.7,1.8-4.7c0-2.2-0.7-4.2-2-6c-1.3-1.8-3.7-4.2-7.1-7l-9.8-8.5c-4.2-3.4-7.2-6.7-9.2-9.9c-2-3.2-3-7.1-3-11.8
		c0-6.4,2.2-11.6,6.6-15.5c4.4-3.9,9.9-5.9,16.6-5.9c6.4,0,11.7,1.9,15.7,5.7c4.1,3.8,6.7,9,7.9,15.5l-12.6,5.4
		c-0.8-3.8-2-6.9-3.8-9.3c-1.7-2.4-4-3.6-6.7-3.6c-2,0-3.6,0.6-4.7,1.8c-1.2,1.2-1.8,2.8-1.8,4.7c0,1.5,0.7,3.1,2,4.8
		c1.3,1.7,3.3,3.7,5.9,5.9l9.9,9.1c4.2,3.7,7.5,7.2,9.8,10.5c2.3,3.4,3.5,7.4,3.5,12.1c0,6.9-2.2,12.2-6.7,16
		c-4.5,3.8-10.2,5.7-17.2,5.7C334.5,123.4,328.8,121.6,324.4,117.9z"/>
</g>
<g>
	<g class="st0">
		<path class="st3" d="M77.8,114.8c-5.1-5.8-7.9-14.5-8.4-26.1l17.9-3.5c0.3,7.2,1.4,12.8,3.5,16.6c2,3.8,5.2,5.7,9.5,5.7
			c3.2,0,5.6-1,7.1-2.9c1.6-1.9,2.3-4.5,2.3-7.8c0-4.5-1-8.3-3-11.5c-2-3.1-5.2-6.6-9.5-10.4L82.8,62.4c-4.4-3.8-7.7-7.8-9.9-12.1
			c-2.2-4.3-3.3-9.5-3.3-15.5c0-8.9,2.6-15.9,7.8-20.8C82.6,9,89.8,6.5,99,6.5c9.9,0,16.9,2.8,21.2,8.4c4.3,5.6,6.7,13.1,7.4,22.6
			l-17.9,3.1c-0.3-6.2-1.2-10.9-2.6-14c-1.5-3.1-4.3-4.7-8.5-4.7c-3,0-5.4,1-7.1,3c-1.7,2-2.5,4.6-2.5,7.7c0,3.7,0.7,6.7,2.2,9.2
			c1.5,2.5,3.8,5.1,7.1,8l14.2,12.6c5.4,4.6,9.5,9.5,12.6,14.8c3,5.3,4.5,11.4,4.5,18.3c0,5.5-1.2,10.3-3.6,14.5
			c-2.4,4.2-5.8,7.5-10.1,9.9c-4.3,2.4-9.3,3.6-14.9,3.6C90.6,123.6,82.9,120.7,77.8,114.8z"/>
	</g>
</g>
</svg>
