<?xml version="1.0" encoding="utf-8"?>
<!-- Generator: Adobe Illustrator 22.0.1, SVG Export Plug-In . SVG Version: 6.00 Build 0)  -->
<svg version="1.1" id="Capa_1" xmlns="http://www.w3.org/2000/svg" xmlns:xlink="http://www.w3.org/1999/xlink" x="0px" y="0px"
	 viewBox="0 0 216.1 206.4" style="enable-background:new 0 0 216.1 206.4;" xml:space="preserve">
<style type="text/css">
	.st0{fill:#FFFFFF;}
</style>
<path class="st0" d="M101.7,10.9c3.8,0,7.5,0,11.2,0c0.5,0.1,1,0.2,1.5,0.3c5.4,0.9,10.9,1.5,16.2,2.9c33.9,9,59.4,37.1,65.3,71.5
	c0.6,3.2,0.9,6.5,1.4,9.7c0,3.8,0,7.5,0,11.2c-0.1,0.5-0.2,1-0.3,1.5c-0.9,5.4-1.5,10.9-2.9,16.2c-9,33.8-37.1,59.4-71.5,65.3
	c-3.2,0.6-6.5,0.9-9.7,1.4c-3.6,0-7.3,0-10.9,0c-0.5-0.1-0.9-0.3-1.4-0.3c-12.4-0.9-24.1-4.1-35-10c-25.7-14-41.5-35.4-47-64.2
	c-0.6-3.4-0.9-6.8-1.4-10.2c0-3.6,0-7.3,0-10.9c0.1-0.5,0.2-1,0.3-1.5c1-5.5,1.5-11.2,2.9-16.5c8.8-33.3,37.4-59.3,71.3-64.9
	C95.1,11.7,98.4,11.3,101.7,10.9z M21.4,100.8c-0.1,47.3,38.4,85.8,85.8,85.9c47.3,0.1,85.8-38.4,85.9-85.8
	c0.1-47.3-38.4-85.8-85.8-85.9C60,15,21.5,53.4,21.4,100.8z"/>
<path class="st0" d="M158.5,43.4c-2.2,0.8-4.7,1.3-6.9,2.6c-5.3,3.2-7.6,9.9-5.5,16.4c1.2,3.6,3,7,4.9,10.2
	c2.8,4.9,5.7,9.7,7.1,15.2c2,7.5,1.3,15-0.9,22.4c-3.6,12.2-7.5,24.4-11.3,36.5c-0.1,0.2-0.2,0.3-0.4,0.7
	c-9.3-27.6-18.5-55.1-27.8-82.6c2.9-0.3,5.6-0.5,8.2-0.8c2.3-0.2,3.5-1.5,3.4-3.4c-0.1-2-1.5-3.1-3.9-3c-4.6,0.2-9.1,0.7-13.7,0.7
	c-8,0-16-0.4-24-0.6c-0.9,0-1.9-0.1-2.8-0.1c-1.8,0-3.1,1.3-3.2,3.1c-0.1,1.7,1,3,2.8,3.2c2.3,0.3,4.7,0.4,7,0.7
	c0.6,0.1,1.4,0.6,1.6,1.1c3.8,10.2,7.6,20.5,11.3,30.8c0.2,0.6,0.2,1.4,0,2c-5.3,16.2-10.7,32.3-16.1,48.4c-0.1,0.3-0.2,0.5-0.5,1.1
	c-9.4-27.9-18.7-55.5-28-83.4c3-0.3,5.8-0.5,8.6-0.8c2.4-0.3,3.7-2.5,2.7-4.6c-0.7-1.4-1.9-1.8-3.3-1.7c-5.6,0.3-11.2,0.6-16.8,0.9
	c-2.7,0.1-5.4,0-8.2,0C67.9,18.6,125.7,12.1,158.5,43.4z"/>
<path class="st0" d="M132.8,173.8c-15.7,5.3-31.4,5.7-47.3,1.2c7.7-22.4,15.3-44.6,23.2-67.3C116.8,129.9,124.7,151.7,132.8,173.8z"
	/>
<path class="st0" d="M36.7,69.4c12.3,33.8,24.5,67.1,36.7,100.5c-18.4-9-31.4-23-38.5-42.2C27.7,108.3,28.5,88.9,36.7,69.4z"/>
<path class="st0" d="M175.2,64.6c18.3,31.8,9.9,80.3-28.9,102.8c0.2-0.7,0.3-1.2,0.5-1.8c7.5-21.7,15-43.4,22.6-65.1
	c2.3-6.6,4.9-13.2,5.6-20.2c0.5-4.7,0.3-9.5,0.4-14.2C175.3,65.6,175.2,65.2,175.2,64.6z"/>
</svg>
