<?xml version="1.0" encoding="utf-8"?>
<!-- Generator: Adobe Illustrator 22.0.1, SVG Export Plug-In . SVG Version: 6.00 Build 0)  -->
<svg version="1.1" id="Capa_1" xmlns="http://www.w3.org/2000/svg" xmlns:xlink="http://www.w3.org/1999/xlink" x="0px" y="0px"
	 viewBox="0 0 367.1 342.1" style="enable-background:new 0 0 367.1 342.1;" xml:space="preserve">
<style type="text/css">
	.st0{opacity:0.2;fill:#23BDF0;}
	.st1{opacity:0.2;fill:#23BDF0;enable-background:new    ;}
	.st2{fill:#40BDFF;}
</style>
<path class="st0" d="M512.2,2955.8c11.5-22.7,14.8-49.6,7.4-76c-6.8-24.1-101.6-141.8-173.4-180c-36.4-19.4-170.6-69.5-249.8-22.3
	C3,2733-109.8,2972.4-99.6,3008.5c8.1,28.7,29.8,49.9,56.1,58.8c127.7,43.4,239.6,124,321.1,231.4c25.2,34.2,69.8,51,113.1,38.8
	c50.8-14.4,82.1-63.9,75.3-114.7C454.3,3131.2,470.4,3038.2,512.2,2955.8L512.2,2955.8z"/>
<path class="st1" d="M178.4,14.2c-10.5-7.4-23.6-11-37.3-9.2c-12.5,1.7-78,40.4-102.2,73.4c-12.3,16.7-47,80-29.2,122.8
	c20.9,50.5,132,124,150.8,121.5c14.9-2,27-11.2,33.3-23.7c30.8-60.5,79.1-110.4,138.5-143.2c18.9-10.1,30.5-31.1,27.5-53.5
	c-3.5-26.3-25.9-45.5-51.7-45.8C261.6,55.7,216.4,41,178.4,14.2L178.4,14.2z"/>
<path class="st2" d="M332.3,155.9c-59.4,32.8-107.7,82.7-138.5,143.2c-6.3,12.5-18.4,21.7-33.3,23.7c-18.7,2.5-129.8-71-150.8-121.5
	c-1.3-3.1-2.3-6.3-3.1-9.7c0.4,7.7,1.9,15.2,4.8,22.1c20.9,50.5,132,124,150.8,121.5c14.9-2,27-11.2,33.3-23.7
	c30.8-60.5,79.1-110.4,138.5-143.2c18.9-10.1,30.5-31.1,27.5-53.5c-0.3-2.2-0.7-4.4-1.3-6.5C360.6,128.4,349.5,146.7,332.3,155.9z"
	/>
</svg>
