<?xml version="1.0" encoding="utf-8"?>
<!-- Generator: Adobe Illustrator 22.0.1, SVG Export Plug-In . SVG Version: 6.00 Build 0)  -->
<svg version="1.1" id="Capa_1" xmlns="http://www.w3.org/2000/svg" xmlns:xlink="http://www.w3.org/1999/xlink" x="0px" y="0px"
	 viewBox="0 0 590.7 385.8" style="enable-background:new 0 0 590.7 385.8;" xml:space="preserve">
<style type="text/css">
	.st0{opacity:0.3;}
	.st1{fill:#00FFFF;}
	.st2{fill:#23A1FF;}
</style>
<g id="XMLID_20_" class="st0">
	<g id="XMLID_182_">
		<polygon id="XMLID_186_" class="st1" points="190.3,83.3 212.7,70.6 212.7,9.2 31.6,9.3 9.1,21.9 31.6,29.5 31.6,44.8 
			190.3,217.8 190.3,255 212.7,242.3 212.7,181.3 101.6,65 142.3,67.1 		"/>
		<path id="XMLID_184_" class="st2" d="M190.3,255L9.1,57.5V21.9l181.1-0.1v61.4l-111-5.5L190.3,194V255z"/>
	</g>
	<g id="XMLID_172_">
		<polygon id="XMLID_181_" class="st1" points="325.8,37.6 303.3,50.3 295,117.8 228.1,292.2 270.6,316.7 267.7,340.6 290.1,327.9 
			387.8,73.4 		"/>
		<path id="XMLID_173_" class="st2" d="M365.3,86.1l-97.6,254.6l-62-35.8l97.6-254.6L365.3,86.1z"/>
	</g>
	<g id="XMLID_21_">
		<polygon id="XMLID_156_" class="st1" points="401.4,118.1 378.9,130.8 401.4,179.5 512.4,302.2 401.4,290.2 378.9,302.9 
			401.4,320.3 401.4,351.2 549.7,360.8 560,375.6 582.5,362.9 582.5,327.3 		"/>
		<path id="XMLID_56_" class="st2" d="M378.9,302.9l111.1,12L378.9,192.2v-61.4L560,340v35.6l-181.1-11.7V302.9z"/>
	</g>
</g>
</svg>
