<?xml version="1.0" encoding="utf-8"?>
<!-- Generator: Adobe Illustrator 22.0.1, SVG Export Plug-In . SVG Version: 6.00 Build 0)  -->
<svg version="1.1" id="Capa_1" xmlns="http://www.w3.org/2000/svg" xmlns:xlink="http://www.w3.org/1999/xlink" x="0px" y="0px"
	 viewBox="0 0 258.5 81" style="enable-background:new 0 0 258.5 81;" xml:space="preserve">
<style type="text/css">
	.st0{fill:#E3E2E2;}
	.st1{font-family:'XelitaBold';}
	.st2{font-size:83.5907px;}
	.st3{fill:#141524;}
	.st4{fill:#2B7CBD;}
	.st5{fill:#1C8FC7;}
	.st6{fill:none;}
</style>
<g id="XMLID_1_">
	<text id="XMLID_45_" transform="matrix(1 0 0 1 4 76.4798)" class="st0 st1 st2">Tbars</text>
	<g id="XMLID_20_">
		<path id="XMLID_43_" class="st3" d="M22.1,76.5V16.1H4.5V3.3h48v12.8H34.9v60.4H22.1z"/>
		<path id="XMLID_32_" class="st3" d="M110.6,34.2c1.1-1.8,2.5-3.5,4-5.1c2.6-2.5,5.5-4.5,8.8-5.9c3.5-1.4,7.1-2.2,10.8-2.2
			c6.4,0,11.5,1.5,15.4,4.6v-4.2h12.9v12.8 M108.7,37.9 M162.5,63.1v13.2h-12.9v-4.4c-3.9,3.1-9,4.6-15.4,4.6
			c-3.8,0-7.4-0.7-10.8-2.2c-3.3-1.4-6.3-3.4-8.8-5.9c-1.6-1.6-3-3.4-4.2-5.3 M137.7,34.2c-1.1-0.2-2.2-0.4-3.4-0.4
			c-1.3,0-2.5,0.1-3.7,0.4 M130,63.1c1.3,0.4,2.7,0.6,4.2,0.6c1.5,0,2.9-0.2,4.2-0.6"/>
		<path id="XMLID_26_" class="st3" d="M168.7,34.2V21.1h12.9v4.1c3.8-2.8,9.1-4.2,15.9-4.2v12.8c-1.5,0-2.9,0.1-4.2,0.4 M181.5,63.1
			v13.4h-12.9V63.1"/>
		<path id="XMLID_21_" class="st3" d="M196.3,34.2c0.7-2.9,2.2-5.4,4.4-7.7c3.3-3.3,7.2-4.9,11.8-4.9h17v12.5 M230.2,63.1
			c-0.6,3.2-2.1,6.1-4.6,8.5c-3.3,3.3-7.2,4.9-11.8,4.9h-17V63.7h17c0.8,0,1.4-0.2,2.1-0.6"/>
		<g>
			<path class="st3" d="M64,3.3H51.2v30.9h24.5c1.1-0.2,2.2-0.4,3.2-0.4c1.3,0,2.5,0.1,3.7,0.4l20-0.1c-1.1-1.8-2.5-3.5-4-5.1
				c-2.6-2.5-5.5-4.5-8.8-5.9C86.3,21.7,82.7,21,79,21c-6.1,0-11.1,1.4-14.9,4.2V3.3z"/>
			<path class="st3" d="M83.2,63.1c-1.3,0.4-2.7,0.6-4.2,0.6c-1.4,0-2.8-0.2-4.2-0.6H51.2v13.4H64v-4.2c3.8,2.8,8.8,4.2,14.9,4.2
				c3.8,0,7.4-0.7,10.8-2.2c3.3-1.4,6.2-3.4,8.8-5.9c1.6-1.6,3-3.4,4.1-5.3L83.2,63.1z"/>
		</g>
	</g>
	<g id="XMLID_18_">
		<g id="XMLID_19_">
			<path class="st4" d="M77.2,53v-8.6h2.4c0.9,0,1.7,0.3,2.3,1c0.6,0.7,0.9,1.6,0.9,2.6v1.2c0,1.1-0.3,2-0.9,2.6
				c-0.6,0.7-1.3,1-2.3,1H77.2z M78.4,45.3v6.7h1.2c0.6,0,1.1-0.3,1.4-0.8c0.4-0.5,0.5-1.2,0.5-2v-1.2c0-0.8-0.2-1.5-0.5-2
				c-0.4-0.5-0.8-0.8-1.4-0.8H78.4z"/>
			<path class="st4" d="M93.1,49h-2.9v3.1h3.4V53H89v-8.6h4.6v0.9h-3.4v2.8h2.9V49z"/>
			<path class="st4" d="M103.5,50.8c0-0.4-0.1-0.7-0.3-1c-0.2-0.3-0.6-0.5-1.2-0.7c-0.8-0.3-1.4-0.6-1.9-1c-0.4-0.4-0.6-0.9-0.6-1.6
				c0-0.7,0.2-1.2,0.7-1.7c0.5-0.4,1.1-0.7,1.8-0.7c0.8,0,1.4,0.2,1.9,0.7c0.5,0.5,0.7,1.1,0.7,1.8l0,0h-1.1c0-0.5-0.1-0.9-0.4-1.2
				s-0.6-0.5-1.1-0.5c-0.4,0-0.8,0.1-1,0.4c-0.2,0.3-0.4,0.6-0.4,1c0,0.4,0.1,0.7,0.4,0.9s0.7,0.5,1.2,0.7c0.8,0.3,1.4,0.6,1.8,1
				c0.4,0.4,0.6,0.9,0.6,1.6c0,0.7-0.2,1.3-0.7,1.7c-0.5,0.4-1.1,0.6-1.9,0.6c-0.8,0-1.4-0.2-2-0.7s-0.8-1.1-0.8-1.9l0,0h1.2
				c0,0.6,0.2,1,0.5,1.3c0.3,0.3,0.7,0.4,1.1,0.4c0.4,0,0.8-0.1,1-0.4C103.4,51.6,103.5,51.2,103.5,50.8z"/>
			<path class="st4" d="M114.7,50.8h-2.6l-0.6,2.2h-1.2l2.6-8.6h1.2l2.5,8.6h-1.2L114.7,50.8z M112.4,49.9h2l-1-3.5h0L112.4,49.9z"
				/>
			<path class="st4" d="M123.5,49.3V53h-1.2v-8.6h2.5c0.8,0,1.5,0.2,1.9,0.6c0.4,0.4,0.7,1,0.7,1.8c0,0.4-0.1,0.8-0.3,1.2
				c-0.2,0.3-0.5,0.6-0.9,0.8c0.4,0.1,0.8,0.4,0.9,0.7c0.2,0.3,0.3,0.8,0.3,1.3v0.7c0,0.3,0,0.5,0.1,0.7c0.1,0.2,0.1,0.4,0.3,0.5V53
				h-1.2c-0.1-0.1-0.2-0.3-0.3-0.6s-0.1-0.5-0.1-0.8v-0.7c0-0.5-0.1-0.9-0.3-1.1c-0.2-0.3-0.5-0.4-0.9-0.4H123.5z M123.5,48.4h1.3
				c0.5,0,0.9-0.1,1.1-0.4s0.4-0.6,0.4-1.1c0-0.5-0.1-0.9-0.3-1.1c-0.2-0.3-0.6-0.4-1-0.4h-1.3V48.4z"/>
			<path class="st4" d="M135,49.3V53h-1.2v-8.6h2.5c0.8,0,1.5,0.2,1.9,0.6c0.4,0.4,0.7,1,0.7,1.8c0,0.4-0.1,0.8-0.3,1.2
				c-0.2,0.3-0.5,0.6-0.9,0.8c0.4,0.1,0.8,0.4,0.9,0.7c0.2,0.3,0.3,0.8,0.3,1.3v0.7c0,0.3,0,0.5,0.1,0.7c0.1,0.2,0.1,0.4,0.3,0.5V53
				h-1.2c-0.1-0.1-0.2-0.3-0.3-0.6s-0.1-0.5-0.1-0.8v-0.7c0-0.5-0.1-0.9-0.3-1.1c-0.2-0.3-0.5-0.4-0.9-0.4H135z M135,48.4h1.3
				c0.5,0,0.9-0.1,1.1-0.4s0.4-0.6,0.4-1.1c0-0.5-0.1-0.9-0.3-1.1c-0.2-0.3-0.6-0.4-1-0.4H135V48.4z"/>
			<path class="st4" d="M151.1,49.9c0,1-0.3,1.8-0.8,2.4c-0.5,0.6-1.3,0.8-2.2,0.8c-0.9,0-1.6-0.3-2.2-0.8s-0.8-1.4-0.8-2.4v-2.4
				c0-1,0.3-1.8,0.8-2.4s1.3-0.9,2.2-0.9c0.9,0,1.7,0.3,2.2,0.9c0.6,0.6,0.8,1.4,0.8,2.4V49.9z M149.9,47.5c0-0.7-0.2-1.3-0.5-1.7
				c-0.3-0.4-0.8-0.6-1.4-0.6c-0.6,0-1,0.2-1.3,0.6c-0.3,0.4-0.5,1-0.5,1.7v2.4c0,0.8,0.2,1.3,0.5,1.7c0.3,0.4,0.8,0.6,1.3,0.6
				c0.6,0,1-0.2,1.4-0.6c0.3-0.4,0.5-1,0.5-1.7V47.5z"/>
			<path class="st4" d="M158.5,52.1h3.5V53h-4.7v-8.6h1.2V52.1z"/>
			<path class="st4" d="M169.1,52.1h3.5V53h-4.7v-8.6h1.2V52.1z"/>
			<path class="st4" d="M183.9,49.9c0,1-0.3,1.8-0.8,2.4c-0.5,0.6-1.3,0.8-2.2,0.8c-0.9,0-1.6-0.3-2.2-0.8s-0.8-1.4-0.8-2.4v-2.4
				c0-1,0.3-1.8,0.8-2.4s1.3-0.9,2.2-0.9c0.9,0,1.7,0.3,2.2,0.9c0.6,0.6,0.8,1.4,0.8,2.4V49.9z M182.8,47.5c0-0.7-0.2-1.3-0.5-1.7
				c-0.3-0.4-0.8-0.6-1.4-0.6c-0.6,0-1,0.2-1.3,0.6c-0.3,0.4-0.5,1-0.5,1.7v2.4c0,0.8,0.2,1.3,0.5,1.7c0.3,0.4,0.8,0.6,1.3,0.6
				c0.6,0,1-0.2,1.4-0.6c0.3-0.4,0.5-1,0.5-1.7V47.5z"/>
			<path class="st4" d="M195.9,50.5L195.9,50.5l1.1-6.1h1.3l-1.8,8.6h-1.1l-1.5-6.1h0l-1.5,6.1h-1.1l-1.8-8.6h1.3l1.1,6.1h0l1.4-6.1
				h1L195.9,50.5z"/>
			<path class="st4" d="M208.2,49h-2.9v3.1h3.4V53h-4.6v-8.6h4.6v0.9h-3.4v2.8h2.9V49z"/>
			<path class="st4" d="M214.7,53v-8.6h2.4c0.8,0,1.5,0.2,1.9,0.6c0.5,0.4,0.7,1,0.7,1.7c0,0.4-0.1,0.8-0.3,1.1
				c-0.2,0.3-0.5,0.5-0.8,0.7c0.5,0.1,0.9,0.3,1.2,0.7c0.3,0.4,0.4,0.8,0.4,1.4c0,0.8-0.2,1.4-0.7,1.8c-0.5,0.4-1.1,0.6-1.9,0.6
				H214.7z M215.9,48.1h1.4c0.4,0,0.7-0.1,0.9-0.4c0.2-0.2,0.3-0.6,0.3-1c0-0.5-0.1-0.8-0.4-1.1s-0.6-0.4-1.1-0.4h-1.2V48.1z
				 M215.9,49v3.1h1.7c0.4,0,0.8-0.1,1-0.4c0.2-0.3,0.4-0.6,0.4-1.1c0-0.5-0.1-0.8-0.3-1.1c-0.2-0.3-0.6-0.4-1-0.4h-0.1H215.9z"/>
		</g>
	</g>
	<path id="XMLID_10_" class="st5" d="M53.5,42h20.9c0,0-6.3,4.6-7.6,6.6c-1,1.2,6.2,6.6,6.2,6.6H53.5V42z"/>
	<path class="st5" d="M221.6,55.6c0,0,10.3-8.1,9.9-8.9c-0.4-0.9,1.3,0.7,1.3,1.5c0.1,0.8-7,6.5-8.5,7.4"/>
	<path id="XMLID_6_" class="st5" d="M248.7,55.3h-21.4c0,0,6.3-4.6,7.6-6.6c1.1-1.3-6.7-7-6.2-6.6h20V55.3z"/>
	<g>
		<path id="XMLID_5_" class="st3" d="M51.2,42h20.9c0,0-6.3,4.6-7.6,6.6c-1,1.2,6.2,6.6,6.2,6.6H51.2V42z"/>
		<path id="XMLID_4_" class="st3" d="M250.4,55.3h-20.9c0,0,6.3-4.6,7.6-6.6c1.1-1.3-6.7-7-6.2-6.6h19.5V55.3z"/>
	</g>
	<g>
		<path id="XMLID_3_" class="st6" d="M51.2,42h20.9c0,0-6.3,4.6-7.6,6.6c-1,1.2,6.2,6.6,6.2,6.6H51.2V42z"/>
		<path id="XMLID_2_" class="st6" d="M250.4,55.3h-20.9c0,0,6.3-4.6,7.6-6.6c1.1-1.3-6.7-7-6.2-6.6h19.5V55.3z"/>
	</g>
	<text transform="matrix(1 0 0 1 252.709 103.1429)" style="font-family:'MyriadPro-Regular'; font-size:12px;"> </text>
</g>
</svg>
