<?xml version="1.0" encoding="utf-8"?>
<!-- Generator: Adobe Illustrator 22.0.1, SVG Export Plug-In . SVG Version: 6.00 Build 0)  -->
<svg version="1.1" id="Capa_1" xmlns="http://www.w3.org/2000/svg" xmlns:xlink="http://www.w3.org/1999/xlink" x="0px" y="0px"
	 viewBox="0 0 933.9 702.4" style="enable-background:new 0 0 933.9 702.4;" xml:space="preserve">
<style type="text/css">
	.st0{fill:#23BDF0;}
	.st1{fill:#FFFFFF;}
</style>
<g>
	<path class="st0" d="M934,5H58c58,21,176.2,103.5,236.9,252.9c28.1,81.4,30.4,176.1,8.9,263.9c-2.8,10.7-4.1,22.1-3.7,33.9
		c2,62.1,52.2,112.4,113.9,114.4c26.2,0.8,50.7-7.1,70.6-21l0,0c135.8-94.6,315.7-92.8,449.4,3.7V5z"/>
	<path class="st1" d="M295,251c21.1,51.4,33.9,172.3,12.1,260.7c-2.8,10.8-6.8,25.8-6.4,37.6c2,62.5,45.9,100,108.4,101.9
		c26.6,0.8,51.4-7.1,71.6-21.1l0,0c136.9-94.7,318.9-93.4,454.2,2.2V-0.6c0,0-864.6,0-895.4,0C142,37,246.3,140.1,295,251z"/>
</g>
</svg>
