<?xml version="1.0" encoding="utf-8"?>
<!-- Generator: Adobe Illustrator 22.0.1, SVG Export Plug-In . SVG Version: 6.00 Build 0)  -->
<svg version="1.1" id="Capa_1" xmlns="http://www.w3.org/2000/svg" xmlns:xlink="http://www.w3.org/1999/xlink" x="0px" y="0px"
	 viewBox="0 0 356.1 316.8" style="enable-background:new 0 0 356.1 316.8;" xml:space="preserve">
<style type="text/css">
	.st0{fill:#23BDF0;}
	.st1{fill:#FFFFFF;}
</style>
<path class="st0" d="M356.1,0H7.1c6.5,10.1,16.4,17.6,28,21l0,0C50.2,25.3,162.3,34.3,233.2,83c70.9,48.8,73.3,176.5,79.5,192
	c7.6,19.3,23.7,34.2,43.4,40V0z"/>
<path class="st1" d="M356.1,0H5.1c6.5,9.9,16.5,17.3,28.2,20.6l0,0c15.2,4.3,127.9,13.1,199.2,61c71.3,47.9,73.7,173.5,79.9,188.7
	c7.7,19,23.8,33.6,43.7,39.3V0z"/>
</svg>
