<?xml version="1.0" encoding="utf-8"?>
<!-- Generator: Adobe Illustrator 22.0.1, SVG Export Plug-In . SVG Version: 6.00 Build 0)  -->
<svg version="1.1" id="Capa_1" xmlns="http://www.w3.org/2000/svg" xmlns:xlink="http://www.w3.org/1999/xlink" x="0px" y="0px"
	 viewBox="0 0 1920 1208.8" style="enable-background:new 0 0 1920 1208.8;" xml:space="preserve">
<style type="text/css">
	.st0{fill:#23A1FF;}
	.st1{fill:#23BDF0;}
	.st2{fill:#238DE0;}
</style>
<path class="st0" d="M1919.6,755.9c-60.8-33.3-376.2,207-595.8,95.9s91.7-523.8-377.9-748.9S-0.3,150.1-0.3,150.1l0,619.5v390.9
	l1916.5,2.4C1916.2,1162.9,1919.6,867.1,1919.6,755.9z"/>
<path class="st1" d="M1919.6,777.4c-60.8-33.3-386,184.8-605.5,73.6s83.4-511.3-386.3-736.4S-0.3,168.9-0.3,168.9l0,626.4v390.9
	l1916.5,2.4C1916.2,1188.6,1919.6,888.6,1919.6,777.4z"/>
<path class="st2" d="M1919.6,790.6c-60.8-33.3-394.3,191.7-613.8,80.6s91.7-514.1-377.9-739.2S-0.3,180.6-0.3,180.6l0,634.8v390.9
	l1916.5,2.4C1916.2,1208.7,1919.6,901.7,1919.6,790.6z"/>
</svg>
