<?xml version="1.0" encoding="utf-8"?>
<!-- Generator: Adobe Illustrator 22.0.1, SVG Export Plug-In . SVG Version: 6.00 Build 0)  -->
<svg version="1.1" id="Capa_1" xmlns="http://www.w3.org/2000/svg" xmlns:xlink="http://www.w3.org/1999/xlink" x="0px" y="0px"
	 viewBox="0 0 1023.9 153.4" style="enable-background:new 0 0 1023.9 153.4;" xml:space="preserve">
<style type="text/css">
	.st0{enable-background:new    ;}
	.st1{fill:none;stroke:#2EA3FC;stroke-width:2;stroke-miterlimit:10;}
	.st2{fill:#2EA3FC;}
</style>
<g>
	<g>
		<g class="st0">
			<path class="st1" d="M30.2,8.6h17.1l9.3,72.8L68.2,8.9h13.9l12.1,72.6l9.2-72.8h16.9L104.6,121H87.9L75.4,45.7L63.1,121H46
				L30.2,8.6z"/>
		</g>
	</g>
	<g>
		<g class="st0">
			<path class="st2" d="M33.2,8.6h17.1l9.3,72.8L71.2,8.9h13.9l12.1,72.6l9.2-72.8h16.9L107.6,121H90.9L78.4,45.7L66.1,121H49
				L33.2,8.6z"/>
		</g>
		<g class="st0">
			<path d="M139.9,115.1c-4.3-4.8-6.4-11.7-6.4-20.7V67.5c0-9.1,2.1-16,6.4-20.7c4.3-4.8,10.7-7.1,19.3-7.1s15.1,2.4,19.4,7.1
				c4.3,4.8,6.5,11.7,6.5,20.7v26.9c0,9.1-2.2,16-6.5,20.7c-4.3,4.8-10.8,7.1-19.4,7.1S144.1,119.9,139.9,115.1z M165,105.8
				c0.9-2.3,1.4-5.6,1.4-10.1V66.2c0-4.4-0.5-7.8-1.4-10.1c-0.9-2.3-2.8-3.5-5.7-3.5c-3,0-4.9,1.2-5.8,3.5
				c-0.9,2.3-1.4,5.7-1.4,10.1v29.6c0,4.4,0.5,7.8,1.4,10.1c0.9,2.3,2.9,3.4,5.8,3.4C162.2,109.2,164.1,108.1,165,105.8z"/>
			<path d="M198.4,40.8h18.9v12.3c2.7-4.7,5.4-8.1,8.2-10.2s5.9-3.1,9.3-3.1c1.2,0,2.2,0.1,2.9,0.3v19.6c-3-1.1-5.5-1.7-7.8-1.7
				c-5,0-9.2,2.6-12.6,7.8V121h-18.9V40.8z"/>
			<path d="M247.3,8.5H266v64.7l20.5-32.3h20.7L287.1,73l19.7,48H287l-14.6-39.5l-6.4,8.9v30.5h-18.7V8.5z"/>
			<path d="M378.5,8.6H391L358.5,121h-12.5L378.5,8.6z"/>
			<path d="M441.8,114.8c-4.2-4.9-6.2-12.3-6.2-22V69c0-9.8,2.1-17.2,6.3-22.1c4.2-4.9,10.7-7.4,19.5-7.4c9.1,0,15.5,2.5,19.2,7.6
				c3.7,5.1,5.6,12.8,5.6,23v11.5h-31.9v15.8c0,3.9,0.6,6.7,1.7,8.5c1.2,1.8,3,2.6,5.5,2.6c2.4,0,4.1-0.9,5.2-2.6
				c1.1-1.7,1.6-4.3,1.6-7.8v-6.8H486V97c0,8.2-2.1,14.5-6.2,18.8c-4.2,4.3-10.3,6.5-18.5,6.5C452.5,122.3,445.9,119.8,441.8,114.8z
				 M468.3,72.5v-7.6c0-4.2-0.5-7.1-1.5-8.9c-1-1.8-2.8-2.7-5.4-2.7c-2.7,0-4.5,1-5.5,2.9c-1,1.9-1.5,5.5-1.5,10.8v5.5H468.3z"/>
			<path d="M509.9,77.9l-16.8-37h18.5L521.8,63l8.9-22.2h16.1l-17.1,39.7l18.3,40.5h-18.6l-11.2-24.6l-9.4,24.6h-16.4L509.9,77.9z"
				/>
			<path d="M556.1,40.8H575v6.1c5.1-4.9,10.5-7.4,16.4-7.4c6.5,0,11.1,2.7,13.7,8c2.7,5.4,4,11.6,4,18.7v27.2
				c0,8.6-1.5,15.5-4.5,20.8c-3,5.3-7.7,7.9-14.2,7.9c-5.2,0-10.3-2.4-15.4-7.2v32.3h-18.9V40.8z M588.8,105.2c1-2.6,1.5-6.2,1.5-11
				V65.4c0-4.2-0.5-7.4-1.5-9.7c-1-2.3-2.9-3.5-5.5-3.5c-2.8,0-5.5,1.2-8.2,3.5v50.6c2.6,1.9,5.4,2.8,8.3,2.8
				C586,109.1,587.8,107.8,588.8,105.2z"/>
			<path d="M626.9,114.8c-4.2-4.9-6.2-12.3-6.2-22V69c0-9.8,2.1-17.2,6.3-22.1c4.2-4.9,10.7-7.4,19.5-7.4c9.1,0,15.5,2.5,19.2,7.6
				c3.7,5.1,5.6,12.8,5.6,23v11.5h-31.9v15.8c0,3.9,0.6,6.7,1.7,8.5c1.2,1.8,3,2.6,5.5,2.6c2.4,0,4.1-0.9,5.2-2.6
				c1.1-1.7,1.6-4.3,1.6-7.8v-6.8h17.8V97c0,8.2-2.1,14.5-6.2,18.8c-4.2,4.3-10.3,6.5-18.5,6.5C637.6,122.3,631,119.8,626.9,114.8z
				 M653.4,72.5v-7.6c0-4.2-0.5-7.1-1.5-8.9c-1-1.8-2.8-2.7-5.4-2.7c-2.7,0-4.5,1-5.5,2.9c-1,1.9-1.5,5.5-1.5,10.8v5.5H653.4z"/>
			<path d="M684.5,40.8h18.9v12.3c2.7-4.7,5.4-8.1,8.2-10.2c2.8-2.1,5.9-3.1,9.3-3.1c1.2,0,2.2,0.1,2.9,0.3v19.6
				c-3-1.1-5.5-1.7-7.8-1.7c-5,0-9.2,2.6-12.6,7.8V121h-18.9V40.8z"/>
			<path d="M733.6,12.4h18.9v15.7h-18.9V12.4z M733.6,40.8h18.9V121h-18.9V40.8z"/>
			<path d="M772.1,114.8c-4.2-4.9-6.2-12.3-6.2-22V69c0-9.8,2.1-17.2,6.3-22.1c4.2-4.9,10.7-7.4,19.5-7.4c9.1,0,15.5,2.5,19.2,7.6
				c3.7,5.1,5.6,12.8,5.6,23v11.5h-31.9v15.8c0,3.9,0.6,6.7,1.7,8.5c1.2,1.8,3,2.6,5.5,2.6c2.4,0,4.1-0.9,5.2-2.6
				c1.1-1.7,1.6-4.3,1.6-7.8v-6.8h17.8V97c0,8.2-2.1,14.5-6.2,18.8c-4.2,4.3-10.3,6.5-18.5,6.5C782.8,122.3,776.3,119.8,772.1,114.8
				z M798.6,72.5v-7.6c0-4.2-0.5-7.1-1.5-8.9c-1-1.8-2.8-2.7-5.4-2.7c-2.7,0-4.5,1-5.5,2.9c-1,1.9-1.5,5.5-1.5,10.8v5.5H798.6z"/>
			<path d="M829.3,40.8h18.9v7.9c6.4-6.1,12.9-9.2,19.4-9.2c4.5,0,7.9,1.7,10.2,5c2.3,3.3,3.4,7.5,3.4,12.6V121h-18.9V60.9
				c0-2.6-0.4-4.5-1.2-5.7c-0.8-1.2-2.2-1.8-4.2-1.8c-2.2,0-5.1,1.3-8.7,3.9V121h-18.9V40.8z"/>
			<path d="M899.6,114.7c-4.1-5-6.1-12.3-6.1-21.7V68.8c0-9.5,2-16.8,6.1-21.8c4.1-5,10.6-7.5,19.6-7.5c8.5,0,14.7,2,18.7,6.1
				c3.9,4.1,5.9,10.3,5.9,18.6v6.7H926v-7.1c0-4.2-0.5-7-1.5-8.6c-1-1.6-2.7-2.4-5.2-2.4c-2.7,0-4.5,1-5.5,2.9
				c-1,1.9-1.5,5.5-1.5,10.7v29.4c0,5,0.5,8.4,1.6,10.3c1.1,1.9,2.8,2.8,5.3,2.8c2.6,0,4.3-0.9,5.3-2.6c0.9-1.7,1.4-4.5,1.4-8.3
				v-8.6h17.8v7.6c0,8.2-2,14.5-6,18.7c-4,4.3-10.2,6.4-18.6,6.4C910.2,122.3,903.7,119.7,899.6,114.7z"/>
			<path d="M961,114.8c-4.2-4.9-6.2-12.3-6.2-22V69c0-9.8,2.1-17.2,6.3-22.1c4.2-4.9,10.7-7.4,19.5-7.4c9.1,0,15.5,2.5,19.2,7.6
				c3.7,5.1,5.6,12.8,5.6,23v11.5h-31.9v15.8c0,3.9,0.6,6.7,1.7,8.5c1.2,1.8,3,2.6,5.5,2.6c2.4,0,4.1-0.9,5.2-2.6
				c1.1-1.7,1.6-4.3,1.6-7.8v-6.8h17.8V97c0,8.2-2.1,14.5-6.2,18.8c-4.2,4.3-10.3,6.5-18.5,6.5C971.7,122.3,965.1,119.8,961,114.8z
				 M987.5,72.5v-7.6c0-4.2-0.5-7.1-1.5-8.9c-1-1.8-2.8-2.7-5.4-2.7c-2.7,0-4.5,1-5.5,2.9c-1,1.9-1.5,5.5-1.5,10.8v5.5H987.5z"/>
		</g>
	</g>
</g>
</svg>
